<svg width="552" height="367" viewBox="0 0 552 367" fill="none" xmlns="http://www.w3.org/2000/svg">
<mask id="mask0_91_38" style="mask-type:luminance" maskUnits="userSpaceOnUse" x="0" y="0" width="552" height="367">
<path d="M0 0H552V367H0V0Z" fill="white"/>
</mask>
<g mask="url(#mask0_91_38)">
<path fill-rule="evenodd" clip-rule="evenodd" d="M249.522 90.7988C232.247 59.5596 203.984 38.3087 172.268 29.3136C155.99 24.6989 138.809 23.3497 121.762 25.4579C105.27 27.5005 88.9182 32.8554 73.582 41.6397C71.9323 42.5861 70.1988 43.6495 68.4839 44.7505C66.783 45.8374 65.1054 46.9571 63.5489 48.0206C32.9092 69.0373 16.1237 90.4756 7.62848 110.747C-6.28639 143.936 1.9013 174.055 8.15973 194.458C8.48593 195.517 9.45988 198.094 10.7647 201.42C13.9755 209.595 19.2273 222.46 21.534 228.302C22.1492 229.853 22.7317 233.455 23.412 238.314C24.9312 249.197 26.7207 266.077 29.2371 281.12C30.225 286.995 31.157 295.878 34.1674 301.851C35.9382 305.355 38.408 307.918 41.7726 308.808C44.3869 309.497 46.4373 309.422 48.9118 308.541C51.0507 307.777 53.5578 306.339 57.2719 304.161C59.4528 302.877 61.0185 301.823 62.2628 301.139C63.0876 300.694 63.6048 300.314 64.2107 300.605C65.3803 301.176 66.5407 302.849 68.675 305.838C72.1234 310.659 77.5756 318.684 87.6087 331.155C101.533 348.471 109.651 357.068 117.228 359.003C121.301 360.038 125.266 359.303 129.861 356.904C135.714 353.845 142.695 348.007 152.602 339.954C154.676 338.267 156.349 337.443 157.905 337.503C159.62 337.569 161.093 338.717 162.724 340.577C167.006 345.468 171.904 355.077 181.322 366.78C181.686 367.229 182.343 367.304 182.795 366.944C183.247 366.578 183.321 365.918 182.958 365.463C173.633 353.61 168.824 343.912 164.574 338.956C162.412 336.431 160.324 335.077 158.017 334.955C155.985 334.852 153.707 335.723 150.967 337.902C141.18 345.688 134.298 351.362 128.533 354.294C124.675 356.257 121.38 356.946 117.992 356.042C110.797 354.126 103.397 345.608 90.3069 328.986C77.8319 313.137 72.5754 304.456 69.3833 300.366C68.0272 298.623 66.9228 297.621 65.9116 297.115C64.5089 296.412 63.1668 296.44 61.4519 297.175C60.0026 297.794 58.1433 299.063 55.282 300.703C51.8522 302.671 49.5455 304.001 47.5697 304.681C45.9293 305.248 44.5686 305.276 42.8397 304.798C39.834 303.973 38.1377 300.989 36.8935 297.457C34.9736 292.013 34.3352 285.168 33.5849 280.403C31.2129 265.379 29.5912 248.532 28.1746 237.663C27.4663 232.242 26.7626 228.236 26.0916 226.503C24.1204 221.396 19.9589 210.944 16.8414 202.914C15.0007 198.164 13.5234 194.285 13.1227 192.94C7.27898 173.413 -0.489301 144.638 12.9316 113.005C21.1799 93.5677 37.4015 73.071 66.8762 52.9304L76.5038 46.7276C91.0897 38.1541 106.696 32.9257 122.452 30.7238C138.832 28.4328 155.375 29.4448 171.159 33.4738C202.437 41.4617 230.718 61.3024 248.613 91.3236C248.757 91.5766 249.079 91.6656 249.331 91.5203C249.578 91.3751 249.666 91.0518 249.522 90.7988ZM275.66 187.857C271.387 179.059 268.111 169.703 265.93 159.925C263.828 150.49 262.747 140.665 262.859 130.579C263.143 95.7134 277.496 64.3148 300.358 41.5882C323.113 18.9599 354.349 4.90503 388.875 5.00342C390.693 5.00342 392.641 5.05964 394.584 5.14865C396.546 5.24235 398.508 5.36884 400.334 5.50471C435.998 8.12359 460.337 17.7371 477.202 30.4755C504.654 51.211 512.236 80.1781 516.877 100.113C517.199 101.481 517.847 105.599 518.606 110.654C519.888 119.176 521.472 130.321 522.292 135.732C522.572 137.564 523.947 141.354 526.006 146.372C530.163 156.505 537.107 171.928 542.508 186.142C544.218 190.658 547.06 196.932 548.1 202.624C548.785 206.391 548.766 209.895 546.529 212.162C545.234 213.474 544.008 214.144 542.261 214.486C540.201 214.889 537.531 214.889 533.565 214.903C530.284 214.912 528.047 214.744 526.486 214.931C524.697 215.151 523.55 215.779 522.707 217.049C522.092 217.976 521.645 219.382 521.332 221.542C520.596 226.681 520.34 236.847 517.376 256.833C514.268 277.808 512.068 288.902 506.779 294.168C504.295 296.646 501.094 297.695 496.783 297.925C490.334 298.272 481.559 296.801 469.21 294.95C465.729 294.43 463.301 294.828 461.577 295.943C459.619 297.213 458.459 299.457 457.83 302.765C456.6 309.192 457.234 320.01 455.02 334.955C454.917 335.634 455.383 336.262 456.055 336.37C456.726 336.473 457.355 336.004 457.457 335.33C459.764 320.455 459.2 309.675 460.463 303.28C460.938 300.886 461.619 299.171 463.049 298.258C464.349 297.433 466.185 297.307 468.795 297.714C481.386 299.687 490.343 301.214 496.932 300.905C502.105 300.666 505.908 299.302 508.913 296.351C514.501 290.855 517.236 279.326 520.638 257.33C523.089 241.485 523.802 231.797 524.375 225.889C524.739 222.184 524.916 220.131 525.652 219.035C526.058 218.436 526.729 218.468 527.731 218.44C529.152 218.403 531.035 218.525 533.565 218.534C537.843 218.548 540.723 218.529 542.946 218.108C545.481 217.634 547.261 216.683 549.148 214.8C551.571 212.378 552.415 208.972 552.2 205.116C551.828 198.45 548.211 190.326 546.138 184.765C540.807 170.48 533.933 154.983 529.823 144.798C527.973 140.216 526.677 136.777 526.435 135.109C525.638 129.693 524.114 118.543 522.879 110.017C522.115 104.788 521.458 100.534 521.137 99.1193C516.402 78.3837 508.513 48.3204 480.058 26.6666C462.672 13.4316 437.563 3.32621 400.703 0.515237C398.829 0.374688 396.821 0.248195 394.817 0.154496C392.79 0.060797 390.767 0.00457764 388.875 0.00457764C353.054 0.102961 320.587 14.7153 297.24 38.4539C273.987 62.0895 259.811 94.7202 260.105 130.579C260.212 140.862 261.498 150.855 263.87 160.417C266.316 170.27 269.905 179.663 274.467 188.461C274.63 188.794 275.035 188.925 275.362 188.756C275.692 188.592 275.828 188.185 275.66 187.857ZM320.41 286.171C321.682 282.797 322.996 279.124 323.882 275.189C324.735 271.432 325.201 267.492 325.117 263.533C325.056 260.891 324.716 258.239 324.059 255.639C323.411 253.085 322.414 250.588 321.095 248.171C319.264 244.915 314.865 239.157 309.948 233.221C301.984 223.594 292.753 213.437 291.863 212.434C290.805 211.244 289.766 210.035 288.75 208.803C287.734 207.576 286.741 206.33 285.767 205.06C285.632 204.868 285.367 204.826 285.176 204.966C284.985 205.102 284.943 205.369 285.078 205.561C285.972 206.901 286.891 208.218 287.837 209.52C288.782 210.827 289.752 212.111 290.744 213.38C291.676 214.556 302.371 227.937 310.265 238.796C313.583 243.359 316.412 247.459 317.707 250.003C318.835 252.158 319.623 254.393 320.214 256.641C320.825 258.984 321.198 261.354 321.398 263.73C321.706 267.445 321.571 271.151 321.221 274.753C320.844 278.693 320.289 282.469 319.595 285.936C319.529 286.161 319.66 286.4 319.884 286.466C320.112 286.531 320.345 286.4 320.41 286.171ZM156.386 194.416C155.347 194.627 154.308 194.781 153.283 194.87C149.261 195.236 145.454 194.641 142.662 192.79C142.415 192.626 142.122 192.439 141.782 192.237C140.183 197.33 137.42 202.066 132.704 205.969C132.084 206.48 130.812 207.496 129.027 208.546C130.141 209.389 131.091 210.199 131.902 210.977C134.032 213.024 135.206 214.87 135.714 216.444C136.716 219.56 135.416 221.842 133.086 223.111C130.905 224.296 127.69 224.512 124.796 223.467C123.123 222.863 121.408 221.94 119.665 220.778C115.923 227.463 109.525 232.481 99.4545 234.552C93.2427 235.831 88.6572 235.611 84.5983 233.76C81.793 232.486 79.2299 230.41 76.5551 227.44C72.4682 229.656 68.4093 231.366 64.7 232.35C56.8105 234.444 50.4542 233.198 47.9891 227.459C47.304 225.871 46.9545 222.985 47.0431 219.316C47.1596 214.346 48.031 207.866 49.676 201.331C47.8726 197.349 46.9312 192.387 46.894 187.468V187.07C46.3068 187.149 45.7243 187.21 45.1604 187.257C36.8702 187.951 31.2316 185.519 29.9128 178.581C29.4002 175.896 27.9789 166.592 29.3489 160.909C29.8895 158.656 30.896 156.936 32.35 156.093C33.8412 155.226 35.9009 155.147 38.6643 156.65C46.5025 160.914 53.5252 163.317 59.8582 164.418C61.2655 163.43 62.4492 162.502 63.4371 161.617C58.5207 159.255 53.665 156.693 49.3917 153.788C42.0941 148.817 36.5021 142.825 34.9363 135.24C33.8831 130.148 34.6194 124.315 37.942 117.555C39.5824 114.224 42.0429 109.843 45.1558 106.461C47.3506 104.085 49.8671 102.202 52.6305 101.41C56.3865 100.328 60.7482 101.499 65.0867 103.856C67.7569 101.307 70.8885 99.4707 72.5661 98.4962C77.3426 95.7274 81.0241 95.4323 83.9692 96.5285C86.7279 97.5545 88.8995 99.8595 90.7263 102.792L91.2342 99.8549C91.3321 99.302 91.4253 98.7445 91.5231 98.187L91.6955 97.2032C87.1893 94.5234 83.1304 92.5276 80.2971 90.6208C76.5318 88.0863 74.8262 85.533 75.8794 82.3004C76.7881 79.5175 78.8851 77.6248 81.9188 76.5144C84.6589 75.5072 88.2052 75.1418 92.2687 75.287C93.5176 75.3292 94.8178 75.4229 96.1599 75.5587C96.2903 75.0668 96.4208 74.5796 96.556 74.097C98.4712 67.2195 100.806 62.5252 103.327 59.5503C106.076 56.2989 109.082 54.9918 112.097 55.0386C117.419 55.1136 122.955 59.6721 127.298 66.0202C128.118 67.2195 128.892 68.4751 129.624 69.7728C131.073 66.7276 132.797 64.1556 134.614 62.3097C138.235 58.6414 142.257 57.7465 145.603 60.7262C149.061 63.8042 152.369 66.0717 155.426 67.7911C157.081 63.6636 161.904 62.3378 168.386 63.1296C179.663 64.5022 196.108 72.1434 206.062 78.5383C210.517 81.4008 213.677 84.076 214.683 85.8328C215.457 87.1821 215.643 88.8312 215.233 90.7005C214.711 93.0992 213.173 95.9148 210.848 98.8242C209.52 100.483 207.936 102.183 206.155 103.86C210.704 107.894 215.611 114.097 215.965 120.061C216.324 126.105 215.34 129.89 213.616 132.35C212.586 133.825 211.286 134.856 209.79 135.606C211.999 138.787 213.691 141.855 214.683 144.76C216.785 150.925 215.876 156.421 210.368 160.89C206.757 163.823 203.373 165.341 200.167 165.866C199.869 165.913 199.571 165.955 199.273 165.988C196.751 169.796 193.41 173.259 189.743 176.163C190.796 180.755 189.682 184.648 187.702 187.374C185.502 190.396 181.275 194.589 175.073 195.793C172.389 196.313 169.332 196.28 165.897 195.329C172.897 200.853 179.859 211.98 192.674 217.864C207.101 224.512 221.04 224.193 234.241 220.197C243.701 217.33 252.765 212.556 261.395 207.093C267.197 203.42 272.799 199.443 278.167 195.475C287.203 188.803 295.581 182.174 303.103 177.124C310.307 172.284 316.785 168.906 322.325 168.161C322.456 168.143 322.582 168.138 322.708 168.147C329.917 167.309 334.027 171.52 337.904 176.754C341.665 181.837 345.132 188.035 352.22 189.815C355.621 190.673 359.773 189.581 363.693 187.946C369.886 185.355 374.42 182.188 376.867 180.113C376.867 180.113 376.904 180.085 376.974 180.024C378.721 179.916 380.483 179.766 382.254 179.574C380.292 181.64 379.033 182.699 379.033 182.699C377.566 183.945 371.591 188.302 364.983 191.066C360.356 192.996 355.421 194.107 351.404 193.095C343.496 191.108 339.404 184.446 335.206 178.773C331.641 173.961 327.964 169.937 320.517 172.026C320.424 172.055 320.331 172.078 320.238 172.101C315.769 173.474 310.792 176.491 305.312 180.361C297.944 185.561 289.766 192.354 280.86 199.11C275.45 203.219 269.774 207.318 263.865 211.043C254.876 216.711 245.346 221.528 235.462 224.376C221.319 228.452 206.426 228.48 191.155 221.125C177.836 214.678 170.856 202.811 163.619 197.185C161.326 195.4 159.019 194.285 156.386 194.416ZM107.297 209.768C105.867 211.685 104.646 213.113 103.588 214.135C101.356 216.295 99.5943 216.8 98.1404 216.473C97.2177 216.266 96.3556 215.704 95.5214 214.814C95.3117 214.589 95.102 214.341 94.8877 214.074C90.181 218.571 84.5983 222.764 78.9643 226.081C81.1872 228.489 83.3448 230.214 85.7074 231.291C89.3143 232.935 93.3965 233.034 98.9186 231.9C108.178 229.993 114.017 225.341 117.414 219.157C114.068 216.59 110.657 213.282 107.297 209.768ZM74.1552 196.009C72.1886 198.876 70.0776 202.08 67.8222 204.606C63.931 208.949 59.5739 211.239 54.858 208.012C53.6463 207.182 52.5699 206.081 51.6332 204.77C50.4589 210.12 49.8344 215.283 49.7366 219.382C49.662 222.53 49.8764 225.023 50.4635 226.386C52.4394 230.987 57.6866 231.413 64.0103 229.731C67.3841 228.836 71.0562 227.314 74.7703 225.341C74.2018 224.643 73.6286 223.903 73.0414 223.125C70.7766 220.117 69.9611 217.072 69.2388 213.521C68.3208 209.014 70.4411 204.934 73.3816 201.598C75.0173 199.743 76.6623 198.393 78.3026 197.452C77.0304 196.904 75.6557 196.416 74.1552 196.009ZM81.3689 198.993C79.3791 199.724 77.3986 201.129 75.3994 203.397C73.0228 206.091 71.1355 209.333 71.8764 212.982C72.5195 216.121 73.1859 218.834 75.1897 221.49C75.8654 222.385 76.5178 223.228 77.1656 224.011C82.8834 220.698 88.578 216.416 93.3219 211.834C93.0283 211.385 92.7208 210.907 92.4039 210.415C90.1391 206.892 87.0681 202.319 81.3689 198.993ZM126.362 209.928C125.374 210.373 124.293 210.78 123.141 211.113C122.624 213.657 121.879 216.088 120.867 218.361C122.508 219.466 124.125 220.342 125.709 220.914C127.834 221.682 130.201 221.603 131.8 220.726C132.545 220.324 133.114 219.743 133.286 218.956C133.487 218.061 133.193 216.979 132.382 215.704C131.306 214.004 129.381 212.073 126.362 209.928ZM112.582 211.314C114.595 213.301 116.608 215.142 118.603 216.707C119.274 215.123 119.81 213.465 120.224 211.741C117.871 212.078 115.294 212.027 112.582 211.314ZM101.994 206.1C100.498 208.133 98.7555 210.171 96.8216 212.158C96.9055 212.275 96.994 212.387 97.0825 212.49C97.6324 213.17 98.1217 213.69 98.7275 213.83C99.0444 213.901 99.3753 213.83 99.7527 213.657C100.34 213.39 100.978 212.898 101.724 212.181C102.726 211.211 103.877 209.857 105.224 208.058C104.143 207.435 103.066 206.775 101.994 206.1ZM85.3672 198.37C89.8875 201.701 92.5949 205.721 94.6686 208.944L95.2698 209.876C96.9148 208.157 98.42 206.409 99.7201 204.666C97.1058 203.003 94.5055 201.378 91.9146 200.174C89.7243 199.157 87.5435 198.454 85.3672 198.37ZM112.806 201.738C111.487 203.781 110.294 205.571 109.203 207.126C109.907 207.468 110.615 207.782 111.324 208.058C114.739 209.403 117.964 209.464 120.788 208.92C120.909 208.161 121.012 207.393 121.096 206.62C119.404 205.664 117.512 204.676 115.401 203.655C114.548 203.238 113.663 202.582 112.806 201.738ZM123.188 183.519C122.908 184.156 122.62 184.802 122.312 185.454C123.486 191.141 124.162 196.918 124.055 202.422C124.036 203.341 123.994 204.245 123.934 205.144C124.889 205.716 125.779 206.278 126.599 206.826C128.775 205.674 130.323 204.432 130.989 203.875C135.435 200.197 137.951 195.699 139.377 190.869C135.369 188.696 129.055 185.664 123.188 183.519ZM81.0147 175.756C73.5913 178.979 66.2051 181.954 59.4761 184.086C58.2551 186.006 57.1554 188.138 56.1721 190.401C54.6949 193.788 53.4739 197.456 52.5046 201.134C53.5205 203.088 54.802 204.695 56.3725 205.772C58.4275 207.178 60.3661 207 62.1929 205.936C64.3365 204.685 66.3216 202.366 68.209 199.822C69.2948 198.361 70.3386 196.824 71.3452 195.343C66.6572 194.186 64.8957 190.584 64.8677 187.782C64.8537 186.362 65.2918 185.126 65.9768 184.348C67.7476 182.343 71.3125 179.143 84.095 185.294C85.302 184.807 86.2992 184.273 87.1054 183.697C88.5267 182.68 89.3003 181.542 89.5286 180.267C89.7477 179.054 89.5007 177.751 88.9601 176.369C86.0988 176.191 83.41 175.967 81.0147 175.756ZM107.577 193.259C107.582 193.512 107.568 193.765 107.54 194.013C107.213 196.707 106.076 199.625 104.315 202.605C104.981 203.331 105.652 204.062 106.328 204.788C106.561 205.041 106.794 205.294 107.032 205.547C108.201 203.861 109.506 201.893 110.965 199.616C109.688 197.906 108.546 195.835 107.712 193.624C107.67 193.502 107.624 193.38 107.577 193.259ZM120.313 189.398C119.469 190.968 118.542 192.57 117.535 194.205C116.38 196.088 115.294 197.831 114.278 199.433C115.028 200.225 115.807 200.839 116.571 201.209C118.29 202.043 119.87 202.858 121.319 203.65C121.338 203.224 121.352 202.797 121.357 202.366C121.441 198.15 121.049 193.769 120.313 189.398ZM83.9459 188.232C82.8182 188.635 81.5553 189.005 80.148 189.342C79.6074 189.469 79.0715 189.881 78.4937 190.429C77.762 191.122 77.0025 192.045 76.2196 193.099C76.0798 193.282 75.94 193.469 75.8048 193.662C77.9997 194.322 79.9476 195.137 81.6858 196.06C82.2124 195.924 82.739 195.826 83.2609 195.76C86.5136 195.343 89.7756 196.196 93.0423 197.714C95.1952 198.712 97.3528 200.01 99.5197 201.373C94.8131 196.266 90.4187 191.727 86.6813 189.675C85.7214 189.145 84.808 188.667 83.9459 188.232ZM91.9751 176.983C92.3107 178.3 92.3946 179.565 92.1848 180.75C91.7794 183.003 90.2882 185.107 87.1194 186.836C87.399 186.985 87.6833 187.14 87.9722 187.295C92.1289 189.581 97.1198 194.8 102.418 200.548C103.742 198.173 104.604 195.859 104.86 193.69C105.005 192.514 104.515 191.324 103.826 190.185C102.6 188.157 100.689 186.306 99.4265 184.994C97.0266 182.497 94.6127 179.55 91.9751 176.983ZM118.784 182.062C118.095 181.865 117.419 181.682 116.771 181.532C114.972 181.106 113.369 180.872 112.097 180.937C111.244 180.979 110.559 181.082 110.238 181.574C108.295 184.531 108.789 188.827 110.233 192.664C110.844 194.285 111.631 195.835 112.512 197.18C113.374 195.812 114.283 194.346 115.243 192.781C116.874 190.129 118.295 187.571 119.493 185.112C119.274 184.09 119.036 183.074 118.784 182.062ZM55.6968 185.21C53.5718 185.8 51.5307 186.283 49.5921 186.643C49.5875 186.911 49.5875 187.182 49.5921 187.449C49.6154 190.719 50.0348 194.032 50.8876 196.983C51.6985 194.35 52.6351 191.759 53.7023 189.309C54.3221 187.89 54.9884 186.517 55.6968 185.21ZM382.398 190.616C378.153 189.881 376.363 189.337 375.958 189.23C374.578 190.11 372.864 190.958 371.824 191.535C379.015 193.84 386.681 195.086 394.631 195.086C436.021 195.086 469.634 161.298 469.634 119.682C469.634 78.0652 436.021 44.2773 394.631 44.2773C353.231 44.2773 319.623 78.0652 319.623 119.682C319.623 148.33 335.551 173.268 358.981 186.03C360.305 185.636 362.006 184.957 363.273 184.404C360.822 183.2 360.188 182.896 357.127 180.998C353.715 178.885 350.495 176.491 347.499 173.854C361.125 177.705 378.474 177.934 395.852 173.722C412.991 169.572 430.145 161.12 443.766 147.651L443.71 147.674C442.121 148.428 440.518 149.145 438.896 149.829C437.303 150.499 435.699 151.132 434.078 151.736L434.036 151.755C422.302 161.045 408.671 167.14 395.069 170.438C375.361 175.212 355.682 174.135 341.874 168.33C339.395 165.617 337.126 162.713 335.08 159.639C357.229 167.253 383.293 167.285 406.08 158.379C401.499 158.88 396.965 159.105 392.506 159.077C372.309 163.922 350.635 162.258 332.233 154.992C330.499 151.9 328.985 148.672 327.712 145.322C334.386 149.164 342.783 151.511 352.061 152.368C353.021 152.457 353.99 152.532 354.969 152.589C350.756 151.108 346.749 149.408 342.983 147.529C336.408 146.025 330.583 143.589 325.974 140.159C324.982 136.8 324.231 133.348 323.733 129.81L323.803 129.881C326.049 132.172 328.481 134.28 331.035 136.224C333.071 137.775 335.192 139.222 337.373 140.567C340.486 142.493 343.724 144.221 347.042 145.763C350.877 147.538 354.825 149.07 358.846 150.363C364.173 152.078 369.629 153.376 375.152 154.261C384.882 155.826 394.817 156.112 404.622 155.118C409.081 154.664 413.513 153.947 417.893 152.973C422.092 152.036 426.235 150.86 430.303 149.459C437.233 147.07 443.929 144.015 450.309 140.389C453.636 138.496 456.875 136.449 460.016 134.261C461.842 132.987 463.636 131.67 465.398 130.307L465.458 130.265C464.853 134.383 463.897 138.393 462.63 142.258C458.92 143.2 455.286 143.8 451.735 144.081C450.7 145.304 449.638 146.484 448.557 147.637C452.685 147.524 456.926 147.014 461.26 146.058C460.775 147.29 460.263 148.508 459.713 149.707C454.987 150.354 450.309 150.621 445.705 150.546C444.558 151.666 443.384 152.753 442.191 153.802C447.35 154.074 452.606 153.933 457.928 153.338C456.903 155.268 455.798 157.152 454.615 158.974C449.661 159.621 444.768 159.878 439.959 159.794C439.511 160.928 439.05 162.043 438.579 163.139C443.002 163.275 447.499 163.13 452.047 162.671C450.658 164.54 449.181 166.339 447.629 168.063C443.785 168.199 440.015 168.189 436.324 168.049C435.807 169.112 435.275 170.152 434.735 171.169C434.698 171.235 434.665 171.296 434.628 171.361C437.787 171.511 441.007 171.567 444.279 171.525C442.643 173.109 440.928 174.617 439.153 176.041C436.683 176.14 434.25 176.187 431.855 176.177C431.133 177.339 430.401 178.464 429.655 179.541C431.217 179.565 432.792 179.565 434.381 179.546C429.436 182.872 424.059 185.594 418.359 187.609C423.075 183.294 427.694 177.114 431.729 169.548C433.616 166.011 435.383 162.174 436.972 158.089C435.271 159.391 433.537 160.628 431.776 161.809C428.066 170.092 423.649 177.086 419.007 182.202C415.298 186.301 411.472 189.178 407.763 190.452C405.899 190.804 404.007 191.075 402.096 191.277C409.426 184.165 415.102 176.636 419.403 168.897C417.633 169.759 415.838 170.569 414.035 171.333C409.613 178.375 403.932 185.196 396.779 191.633C396.061 191.656 395.348 191.666 394.631 191.666C391.928 191.666 389.262 191.516 386.634 191.221C389.411 188.452 394.025 183.448 398.839 176.501C398.107 176.693 397.38 176.875 396.653 177.053C395.721 177.278 394.789 177.489 393.857 177.691C388.628 184.699 383.996 189.15 382.398 190.616ZM187.352 177.948C182.557 181.312 177.403 183.697 172.892 184.652C172.132 186.072 170.888 187.473 169.262 188.752C167.803 189.895 166.042 190.954 164.108 191.863C168.111 193.469 171.597 193.708 174.565 193.132C179.957 192.087 183.615 188.405 185.525 185.777C186.989 183.767 187.786 181.092 187.352 177.948ZM80.2645 186.522C77.7434 185.458 75.7163 184.854 74.062 184.582C70.3805 183.968 68.8893 185.135 67.9946 186.147C67.6777 186.503 67.5566 187.098 67.5612 187.754C67.5845 189.698 68.9639 192.106 72.3517 192.795C72.5708 192.842 72.7898 192.884 73.0088 192.935C73.6612 192.003 74.2996 191.132 74.9241 190.359C76.5225 188.377 78.1022 187.042 79.5282 186.704C79.7798 186.643 80.0268 186.583 80.2645 186.522ZM149.969 166.025C147.952 167.168 145.901 168.274 143.846 169.29C143.911 174.744 144.028 180.633 143.138 186.316C142.97 187.398 142.765 188.471 142.518 189.529C143.18 189.914 143.734 190.251 144.149 190.527C146.479 192.078 149.68 192.476 153.04 192.172C154.49 192.041 155.971 191.778 157.43 191.403C148.758 185.786 145.766 178.356 145.612 175.831C145.388 172.087 147.22 168.649 149.969 166.025ZM165.893 165.074C164.094 163.252 160.944 163.298 157.863 164.334C152.928 165.997 147.989 170.363 148.306 175.671C148.445 178.07 151.759 185.28 160.869 190.307C163.428 189.328 165.776 188.049 167.603 186.615C168.227 186.123 168.796 185.622 169.281 185.112C165.063 185.252 161.75 183.804 160.142 180.614C159.522 179.391 159.653 178.22 160.398 177.025C160.925 176.177 161.834 175.287 162.975 174.331C163.852 173.601 164.886 172.809 165.963 171.919C165.935 171.375 165.93 170.827 165.935 170.284C165.958 168.677 166.093 167.117 166.037 165.959C166.018 165.622 165.916 165.158 165.893 165.074ZM116.767 174.955C116.063 175.123 115.345 175.282 114.618 175.423C108.602 176.599 101.822 176.829 95.4189 176.66C97.4787 178.82 99.4312 181.101 101.365 183.111C102.74 184.54 104.795 186.569 106.132 188.78C106.3 189.061 106.459 189.342 106.603 189.628C105.974 186.142 106.277 182.685 107.992 180.08C108.588 179.171 109.609 178.557 111.03 178.328C112.633 178.065 114.847 178.29 117.386 178.895C117.587 178.941 117.787 178.988 117.987 179.04C117.601 177.662 117.195 176.294 116.767 174.955ZM141.171 170.555C141.017 170.626 140.868 170.691 140.714 170.757C135.616 173.024 130.598 174.538 126.161 174.589C125.709 176.636 125.057 178.777 124.204 181.017C129.889 183.111 135.947 185.988 140.057 188.175C140.221 187.421 140.356 186.658 140.477 185.894C141.278 180.792 141.236 175.517 141.171 170.555ZM56.5868 166.554C50.7525 165.224 44.3775 162.839 37.3828 159.03C35.7565 158.145 34.5775 157.929 33.7014 158.435C32.788 158.965 32.308 160.131 31.9679 161.546C30.691 166.859 32.0797 175.564 32.5597 178.075C33.6082 183.598 38.3335 185.112 44.9367 184.559C45.6031 184.502 46.2928 184.423 46.9918 184.329C47.2668 180.45 48.1009 176.754 49.4756 173.788C50.7152 171.113 52.4021 169.023 54.4758 167.819C55.2168 167.388 55.9204 166.967 56.5868 166.554ZM60.436 167.295C59.0753 168.213 57.5468 169.164 55.8226 170.167C54.1823 171.118 52.8961 172.818 51.9175 174.936C50.7431 177.466 50.0208 180.576 49.7319 183.87C52.239 183.383 54.9232 182.685 57.7285 181.827C58.8656 180.127 60.0958 178.604 61.4146 177.302C64.6394 174.121 68.4047 172.261 72.6826 172.383C74.4348 172.434 77.2075 172.706 80.6233 173.015C81.8302 172.486 83.0372 171.956 84.2395 171.417C81.7231 170.063 78.8898 168.719 75.8934 167.346C71.224 168.072 66.098 168.185 60.436 167.295ZM166.447 174.997C165.105 176.074 163.907 177.002 163.125 177.883C162.654 178.417 162.276 178.857 162.547 179.391C163.418 181.12 165.059 182.019 167.114 182.31C168.288 182.474 169.588 182.446 170.977 182.244C171.037 181.963 171.056 181.677 171.037 181.396C170.958 180.309 170.226 179.316 168.824 178.384C167.626 177.592 166.876 176.402 166.447 174.997ZM176.028 162.038C174.868 166.967 171.792 170.401 168.773 173.057L168.81 173.305C169.015 174.463 169.392 175.517 170.31 176.126C172.608 177.653 173.6 179.429 173.722 181.209C173.736 181.359 173.74 181.513 173.736 181.663C174.281 181.518 174.831 181.35 175.39 181.157C179.062 179.921 182.995 177.845 186.667 175.156C185.297 171.225 182.044 166.747 176.028 162.038ZM75.3854 175.264C74.295 175.175 73.3583 175.114 72.6034 175.09C69.0618 174.992 65.9768 176.599 63.3019 179.237C62.9431 179.588 62.5936 179.963 62.2488 180.352C66.4661 178.895 70.8931 177.147 75.3854 175.264ZM120.569 173.835C120.173 173.975 119.772 174.111 119.362 174.238C119.949 176.093 120.504 177.99 121.007 179.911C121.226 179.982 121.445 180.052 121.669 180.127C122.424 178.15 123.02 176.243 123.44 174.42C123.109 174.374 122.778 174.317 122.456 174.247C121.823 174.116 121.194 173.975 120.569 173.835ZM100.992 166.742C97.446 168.363 93.7553 170.059 90.0086 171.755C90.894 172.401 91.7468 173.113 92.581 173.872C99.6269 174.182 107.353 174.083 114.101 172.767C114.488 172.687 114.87 172.607 115.252 172.523C109.79 171.038 104.958 169.22 101.183 166.859L100.992 166.742ZM87.1194 173.057L86.1687 173.483L87.5807 173.587L87.1194 173.057ZM176.429 155.826C176.527 156.936 176.541 157.986 176.476 158.979C183.303 164.062 187.105 169 188.881 173.432C191.537 171.239 193.983 168.728 195.992 166.006C190.269 165.468 184.98 162.057 179.64 158.178C178.573 157.405 177.505 156.613 176.429 155.826ZM118.691 139.869C118.444 140.801 118.304 141.72 118.309 142.619C118.318 144.512 117.727 145.87 116.748 146.812C115.802 147.721 114.441 148.255 112.717 148.372C111.119 148.485 109.166 148.236 106.966 147.683C107.731 148.85 108.472 150.026 109.18 151.197C112.759 150.298 116.016 150.569 119.148 152.795C120.136 153.493 121.026 154.247 121.818 155.048C122.89 154.697 123.892 154.392 124.819 154.149C127.373 153.474 129.433 153.245 130.868 153.497C131.916 153.685 132.699 154.116 133.235 154.734C133.785 155.371 134.102 156.229 134.074 157.363C133.901 163.495 131.124 167.81 126.776 170.78C126.739 171.146 126.697 171.516 126.646 171.886C131.059 171.731 136.068 169.979 141.134 167.59C141.125 166.85 141.12 166.123 141.125 165.402C141.143 161.036 141.395 157.072 142.439 153.868C134.423 150.48 126.236 145.425 118.691 139.869ZM120.984 158.196C118.943 158.932 116.683 159.832 114.259 160.853C115.583 163.8 116.892 167.042 118.099 170.471C118.859 170.663 119.628 170.846 120.406 171.024C121.762 170.513 123.03 169.918 124.185 169.23C124.386 164.915 123.356 161.2 120.984 158.196ZM111.78 161.912C109.31 162.98 106.701 164.146 103.998 165.374C107.092 167.084 110.811 168.461 114.935 169.632C113.924 166.896 112.857 164.306 111.78 161.912ZM94.7479 160.876C91.7235 162.39 88.4522 163.884 84.8779 165.102C86.0755 166.639 87.2219 168.147 88.2378 169.618C91.7142 168.04 95.1533 166.456 98.4759 164.929C96.9847 163.711 95.7311 162.361 94.7479 160.876ZM166.084 156.318C163.507 157.822 160.524 159.7 157.304 161.673C161.405 160.37 165.501 160.769 167.873 163.233C168.204 163.58 168.47 164.09 168.605 164.769C168.796 165.725 168.745 167.154 168.679 168.747C168.67 168.991 168.661 169.239 168.651 169.487C170.939 167.168 172.971 164.235 173.605 160.263C171.447 158.848 168.819 157.597 166.084 156.318ZM82.1238 165.969C81.5367 166.137 80.9402 166.297 80.3344 166.447C81.5413 167.018 82.711 167.585 83.8294 168.152C83.2749 167.431 82.7063 166.704 82.1238 165.969ZM126.893 167.271C129.582 164.863 131.255 161.626 131.38 157.288C131.385 157.002 131.362 156.768 131.255 156.585C131.115 156.355 130.845 156.262 130.514 156.191C130.118 156.102 129.647 156.084 129.111 156.116C127.671 156.196 125.84 156.608 123.691 157.278C125.7 160.122 126.753 163.472 126.893 167.271ZM144.946 154.875C144.023 157.817 143.837 161.438 143.818 165.416C143.818 165.697 143.818 165.983 143.818 166.273C149.131 163.565 154.382 160.314 158.991 157.47C157.244 157.775 155.603 157.817 154.098 157.531C151.12 156.964 148.054 156.055 144.946 154.875ZM66.0653 162.858C65.3803 163.523 64.5881 164.217 63.6794 164.938C66.2191 165.186 68.6377 165.224 70.9491 165.097C69.3367 164.367 67.701 163.622 66.0653 162.858ZM77.4964 135.385C77.2774 135.404 77.0584 135.418 76.8393 135.428C73.596 135.582 70.1336 134.959 67.0393 134.523C65.1473 134.252 63.4091 134.05 61.9832 134.205C61.1583 134.294 60.4547 134.486 59.9514 134.959C59.4574 135.418 59.1965 136.13 59.1126 137.133C58.9495 139.157 59.8069 140.858 61.0185 142.432C62.4026 144.24 64.2479 145.875 65.865 147.529C68.0971 149.815 69.8773 152.172 70.045 154.856C70.1569 156.622 69.607 158.576 67.934 160.769C70.7254 162.062 73.4981 163.303 76.159 164.512C77.5756 164.273 78.9503 163.978 80.2785 163.631C76.8859 159.321 73.5587 154.889 71.9743 150.663C70.7533 147.416 70.5343 144.273 71.8531 141.354C72.8038 139.251 74.5839 137.227 77.4964 135.385ZM107.945 154.402C104.893 155.493 101.57 157.334 97.8328 159.293C97.6185 159.405 97.3994 159.518 97.1851 159.63C98.2289 161.139 99.6083 162.469 101.258 163.654C104.539 162.155 107.684 160.736 110.634 159.457C109.818 157.78 108.914 156.093 107.945 154.402ZM186.509 143.42C182.673 145.669 178.577 148.325 174.518 150.724C174.677 150.799 174.821 150.893 174.956 150.996C175.283 151.244 175.553 151.577 175.735 152.008C177.589 153.305 179.407 154.669 181.22 155.981C186.611 159.902 191.882 163.49 197.749 163.373C198.657 161.86 199.426 160.295 200.013 158.693C200.633 157.016 200.787 155.751 200.503 154.734C200.191 153.619 199.352 152.874 198.28 152.195C196.938 151.342 195.251 150.63 193.489 149.768C189.976 148.058 187.851 145.922 186.583 143.565L186.509 143.42ZM207.204 136.599C206.868 136.693 206.528 136.782 206.183 136.866C202.642 137.714 198.513 137.84 194.776 139.251C192.944 139.939 190.959 140.918 188.867 142.076C189.901 144.081 191.691 145.88 194.664 147.332C196.528 148.241 198.303 149.005 199.72 149.904C201.402 150.972 202.609 152.251 203.098 154.003C203.499 155.446 203.42 157.255 202.544 159.63C202.134 160.74 201.649 161.827 201.095 162.9C203.499 162.263 206.006 160.947 208.676 158.782C213.159 155.142 213.844 150.658 212.134 145.636C211.156 142.769 209.436 139.738 207.204 136.599ZM82.3196 135.887C77.9251 137.845 75.4087 140.033 74.3043 142.474C73.0041 145.36 73.7637 148.503 75.3994 151.755C77.1982 155.334 80.0734 159.012 82.9114 162.61L83.0791 162.821C86.8677 161.612 90.3022 160.066 93.457 158.492C92.6182 156.529 92.1895 154.345 92.2361 151.914C92.2874 149.14 92.9724 146.077 94.3984 142.717C90.414 140.736 86.2713 138.374 82.3196 135.887ZM63.1994 105.903C59.765 104.099 56.3632 103.153 53.3714 104.015C51.0554 104.68 48.9723 106.306 47.1363 108.302C44.2051 111.488 41.9031 115.62 40.3606 118.754C37.3595 124.849 36.6232 130.096 37.5739 134.687C39.0045 141.621 44.2331 146.999 50.9062 151.544C55.31 154.542 60.3428 157.17 65.4223 159.588C66.8622 157.873 67.4401 156.397 67.3562 155.025C67.2257 152.94 65.6786 151.207 63.945 149.431C62.2488 147.702 60.3335 145.978 58.8842 144.09C57.2532 141.968 56.2047 139.635 56.4284 136.913C56.5775 135.067 57.2066 133.821 58.12 132.973C59.0147 132.134 60.2263 131.67 61.6942 131.511C63.3113 131.338 65.2778 131.534 67.4121 131.839C70.3526 132.256 73.6379 132.865 76.7135 132.72C76.9512 132.71 77.1889 132.696 77.4265 132.673C74.4115 130.607 71.6201 128.527 69.2249 126.559C64.9423 123.036 61.9412 119.813 61.0791 117.681C59.4201 113.577 60.3754 109.965 62.4212 106.953C62.6635 106.592 62.9245 106.24 63.1994 105.903ZM118.947 156.07C118.523 155.699 118.071 155.348 117.596 155.006C115.392 153.441 113.099 153.17 110.615 153.647C111.519 155.24 112.353 156.824 113.118 158.398C115.182 157.527 117.135 156.744 118.947 156.07ZM96.8076 143.879C95.582 146.807 94.9762 149.501 94.9296 151.966C94.8923 153.914 95.2279 155.671 95.8849 157.255C96.1179 157.133 96.3556 157.011 96.5886 156.889C100.237 154.973 103.518 153.184 106.538 152.04C105.382 150.157 104.147 148.274 102.852 146.404C100.936 145.711 98.9046 144.854 96.8076 143.879ZM172.692 153.198C172.435 153.245 172.146 153.324 171.839 153.432C171.424 153.568 170.977 153.75 170.497 153.971C170.012 154.186 169.5 154.439 168.959 154.72C170.669 155.535 172.314 156.351 173.801 157.213C173.773 156.107 173.642 154.926 173.391 153.671L173.228 153.558C173.116 153.479 172.999 153.404 172.887 153.324L172.692 153.198ZM152.434 148.082C151.768 148.26 151.097 148.475 150.407 148.733C148.38 149.497 146.987 150.761 146.018 152.401C148.93 153.493 151.805 154.336 154.601 154.87C156.642 155.259 158.959 154.917 161.452 154.111C159.695 153.23 157.98 152.298 156.405 151.258C154.946 150.298 153.604 149.248 152.434 148.082ZM168.842 150.818L168.684 150.729C164.709 148.541 160.492 147.093 155.808 147.487C156.465 148.016 157.16 148.517 157.882 148.991C160.03 150.41 162.435 151.633 164.849 152.785C166.154 152.204 167.491 151.539 168.842 150.818ZM375.622 50.2694C378.745 49.3136 381.545 48.8358 384.607 48.4001C404.659 73.0944 412.534 95.7602 413.662 115.432C413.984 120.998 413.76 126.325 413.126 131.389C414.357 130.64 415.573 129.862 416.761 129.056C417.18 124.629 417.292 120.019 417.017 115.236C415.885 95.4557 408.187 72.7009 388.568 47.955C389.477 47.8566 392.31 47.7254 393.82 47.7067C395.493 47.6833 398.405 47.7582 399.785 47.8847C406.085 53.1319 416.141 68.8592 422.265 89.1404C425.154 98.707 427.162 109.29 427.461 120.281C428.584 119.162 429.66 118.004 430.685 116.814C430.093 106.723 428.16 97.0205 425.485 88.1612C420.065 70.2272 411.593 55.7742 405.148 48.475C409.105 49.0607 412.954 49.9742 416.677 51.1829C417.912 51.5858 418.839 51.9138 420.051 52.3776C421.235 52.832 422.404 53.3146 423.555 53.8252C433.682 67.8613 439.083 83.3264 441.1 98.6649C441.986 95.9476 442.648 93.1179 443.058 90.1758C440.695 78.8335 436.417 67.5521 429.716 56.9361C431.659 58.037 433.551 59.227 435.378 60.5013C436.366 61.19 437.512 62.0473 437.689 62.1832C440.355 64.2071 442.881 66.4137 445.239 68.7843C453.31 103.265 431.953 127.416 404.44 139.789C395.875 143.64 386.709 146.358 377.621 147.89C381.256 148.414 384.989 148.761 388.801 148.906C394.598 147.356 400.325 145.341 405.81 142.872C433.267 130.527 454.689 106.915 449.591 73.5676C452.839 77.4749 455.682 81.7382 458.058 86.2826C453.948 112.767 441.473 131.745 425.005 144.057C428.122 143.078 431.244 141.949 434.367 140.651C446.884 128.869 456.367 112.645 460.542 91.5484C462.285 95.6665 463.655 99.9767 464.62 104.441C462.047 114.322 458.152 123.027 453.254 130.63C455.481 129.173 457.695 127.623 459.89 125.973C462.173 121.659 464.172 117.044 465.836 112.12C466.092 114.603 466.227 117.128 466.227 119.682C466.227 121.729 466.143 123.753 465.976 125.758C465.738 125.814 465.51 125.922 465.305 126.086C410.545 170.129 345.327 151.296 323.164 124.123C323.076 122.656 323.029 121.176 323.029 119.682C323.029 118.496 323.057 117.316 323.113 116.135C323.542 117.653 324.04 119.176 324.604 120.689C324.916 120.932 325.21 121.218 325.466 121.546C327.274 123.814 329.385 126.016 331.781 128.133C327.428 120.426 324.977 112.425 324.595 104.657C325.233 101.64 326.058 98.693 327.065 95.8211C328.924 106.147 333.924 116.927 341.744 127.009C342.107 125.66 342.494 124.31 342.909 122.961C334.875 111.984 330.28 100.267 329.679 89.3746C331.622 85.1722 333.957 81.19 336.636 77.4749C337.494 88.0722 341.413 99.1896 347.797 109.768C348.342 108.522 348.911 107.276 349.498 106.039C343.347 95.2495 339.88 83.9776 339.824 73.3802C342.187 70.5552 344.768 67.9129 347.532 65.4814C347.359 75.5868 349.955 86.0717 354.797 96.135C355.482 94.9919 356.185 93.8581 356.917 92.729C352.443 82.7735 350.286 72.4573 351.027 62.6002C354.848 59.6486 358.963 57.0766 363.329 54.9356C362.7 58.7913 362.872 63.495 363.832 68.7327C364.461 72.1762 365.431 75.8539 366.712 79.6674C367.56 78.6976 368.423 77.7372 369.313 76.7909C368.371 73.7831 367.64 70.8738 367.136 68.1237C366.051 62.2066 365.999 57.0344 367.169 53.1928C368.8 52.5088 370.464 51.8857 372.16 51.3235C397.445 82.9516 403.34 109.871 401.192 130.846C400.945 133.287 400.586 135.643 400.139 137.915C401.113 137.512 402.087 137.095 403.051 136.664C403.312 136.543 403.583 136.421 403.853 136.299C404.128 134.636 404.361 132.935 404.538 131.192C406.723 109.82 400.964 82.3941 375.622 50.2694ZM136.525 122.118C135.891 122.127 135.3 122.151 134.764 122.197C132.923 122.357 130.607 122.703 127.979 123.195C127.764 123.565 127.541 123.931 127.317 124.301C124.847 128.363 122.042 132.293 120.201 136.013C120.001 136.426 119.81 136.828 119.632 137.231C127.191 142.867 135.425 148.007 143.483 151.394C144.745 149.047 146.647 147.257 149.461 146.198C149.82 146.062 150.17 145.941 150.524 145.824C149.606 144.531 148.893 143.102 148.441 141.518C148.157 140.525 147.97 139.471 147.905 138.342C138.86 140.928 132.783 141.495 129.144 140.834C125.117 140.103 123.607 137.958 123.775 135.395C123.938 132.94 125.993 129.735 129.633 126.695C131.53 125.107 133.86 123.537 136.525 122.118ZM183.657 117.709C180.199 118.894 176.741 119.635 173.442 119.78C176.504 127.538 177.883 132.336 178.093 135.072C178.242 137.03 177.78 138.192 177.142 138.815C176.429 139.513 175.376 139.766 174.02 139.419C172.72 139.087 171.009 138.154 169.099 136.936C167.086 135.653 164.816 134.036 162.551 132.617C161.372 133.53 159.555 134.481 156.95 135.414C154.69 136.219 152.565 136.927 150.57 137.545C150.584 138.702 150.743 139.771 151.027 140.768C151.498 142.399 152.304 143.823 153.353 145.088C159.485 143.903 164.909 145.561 169.98 148.353C170.525 148.653 171.065 148.967 171.606 149.29C176.289 146.615 181.08 143.481 185.521 140.886C184.766 138.126 184.85 135.142 185.157 132.158C185.465 129.145 185.991 126.137 185.861 123.415C185.758 121.251 185.227 119.279 183.657 117.709ZM106.137 129.726C103.635 132.621 101.584 135.353 99.9578 137.929C101.542 139.967 103.08 142.038 104.553 144.132C105.149 144.338 105.736 144.526 106.309 144.694C108.723 145.411 110.853 145.786 112.535 145.669C113.528 145.603 114.339 145.374 114.889 144.854C115.401 144.362 115.62 143.617 115.616 142.628C115.611 141.181 115.895 139.682 116.398 138.15C112.773 135.39 109.32 132.537 106.137 129.726ZM394.98 100.286C395.372 101.682 395.726 103.069 396.038 104.437C387.934 115.676 381.974 128.62 378.255 141.134C377.924 142.249 377.607 143.364 377.314 144.474C376.107 144.68 374.9 144.868 373.698 145.032C374.103 143.42 374.55 141.794 375.035 140.169C379.099 126.475 385.804 112.331 394.98 100.286ZM360.188 143.809C359.098 143.448 358.021 143.073 356.963 142.685C360.617 120.159 371.424 98.9132 388.461 83.0874C388.978 84.1743 389.472 85.2566 389.947 86.3294C373.782 101.687 363.576 122.16 360.188 143.809ZM98.4806 140.422C98.2942 140.764 98.1171 141.096 97.9447 141.434C98.611 141.743 99.2681 142.038 99.9159 142.319C99.4405 141.687 98.9652 141.054 98.4806 140.422ZM92.0078 132.471C89.4447 133.273 87.1986 134.017 85.4418 134.65C88.783 136.697 92.2221 138.623 95.5447 140.277C95.8989 139.579 96.2857 138.871 96.7051 138.15C95.1673 136.215 93.5922 134.317 92.0078 132.471ZM188.396 115.812C187.958 116.013 187.52 116.205 187.082 116.393C186.84 116.496 186.602 116.594 186.36 116.693C188.876 119.939 188.778 124.217 188.261 128.77C187.855 132.34 187.18 136.107 187.949 139.508C190.027 138.37 192.003 137.4 193.83 136.711C196.756 135.61 199.911 135.236 202.865 134.753C203.755 134.608 204.627 134.453 205.466 134.261C203.844 132.167 202.022 130.031 200.065 127.857C196.514 123.917 192.511 119.874 188.396 115.812ZM142.187 122.436C137.83 124.217 134.111 126.47 131.357 128.78C128.454 131.207 126.595 133.61 126.464 135.573C126.376 136.946 127.466 137.779 129.619 138.168C133.156 138.81 139.083 138.145 147.975 135.512C148.105 134.238 148.376 132.879 148.8 131.436C149.447 129.234 150.529 127.932 151.824 127.229C153.124 126.531 154.685 126.423 156.423 126.807C158.101 127.177 159.974 128.044 161.89 129.122C161.876 128.859 161.717 128.625 161.508 128.377C161.153 127.965 160.641 127.58 160.016 127.201C156.195 124.877 148.576 123.125 142.187 122.436ZM346.208 137.92C345.15 137.367 344.12 136.796 343.109 136.215C344.172 130.696 345.677 125.06 347.648 119.438C353.967 101.448 365.049 83.5887 381.359 70.157C381.965 71.1361 382.556 72.1106 383.125 73.0804C367.514 86.0624 356.898 103.256 350.822 120.562C348.776 126.39 347.243 132.228 346.208 137.92ZM170.529 119.747C169.742 119.691 168.968 119.597 168.213 119.461C160.99 118.173 153.944 118.829 147.746 120.544C153.068 121.509 158.367 123.031 161.41 124.882C163.423 126.105 164.504 127.566 164.579 128.976C164.606 129.492 164.518 130.021 164.28 130.555C166.461 131.923 168.619 133.422 170.539 134.645C172.091 135.638 173.47 136.44 174.551 136.758C174.817 136.833 175.185 136.852 175.269 136.852C175.292 136.8 175.353 136.655 175.371 136.547C175.436 136.215 175.446 135.798 175.404 135.282C175.194 132.556 173.722 127.712 170.529 119.747ZM103.038 129.22C100.154 130.026 97.3715 130.836 94.8178 131.609C95.9595 132.954 97.0919 134.322 98.2056 135.713C99.5617 133.643 101.165 131.478 103.038 129.22ZM124.39 123.907C119.404 124.952 113.686 126.353 108.08 127.847C110.997 130.415 114.134 133.024 117.428 135.564C117.545 135.311 117.661 135.062 117.787 134.809C119.502 131.333 122.042 127.679 124.39 123.907ZM159.97 131.108C158.53 130.335 157.127 129.735 155.841 129.454C154.811 129.225 153.874 129.201 153.101 129.618C152.323 130.035 151.773 130.883 151.386 132.204C151.134 133.048 150.948 133.858 150.813 134.636C152.467 134.106 154.21 133.516 156.046 132.86C157.71 132.265 159.005 131.684 159.97 131.108ZM204.128 105.678C200.293 108.976 195.745 112.101 190.964 114.566C194.878 118.435 198.676 122.282 202.064 126.039C204.31 128.531 206.374 130.986 208.182 133.385C209.119 132.968 209.963 132.42 210.69 131.67C212.651 129.646 213.635 126.217 213.276 120.225C212.95 114.805 208.271 109.267 204.128 105.678ZM65.5714 107.266C63.4371 109.796 62.0764 112.959 63.5769 116.66C64.3458 118.557 67.1185 121.326 70.9304 124.465C73.801 126.821 77.2634 129.351 80.9868 131.816C81.5087 131.581 82.012 131.3 82.4873 130.954C83.9645 129.876 85.1668 128.203 85.987 125.73C85.0177 124.69 84.0577 123.673 83.1118 122.689C79.9429 119.396 73.2558 112.218 66.1818 107.651C65.9768 107.519 65.7764 107.393 65.5714 107.266ZM88.0281 127.955C87.3757 129.482 86.5835 130.715 85.6794 131.703C86.9703 131.253 88.4522 130.766 90.0785 130.251C89.3935 129.473 88.7085 128.709 88.0281 127.955ZM91.9658 111.183C91.0571 116.121 90.1018 120.82 89.002 125.013C90.2929 126.423 91.5977 127.88 92.8978 129.375C95.8663 128.466 99.1749 127.501 102.619 126.54C101.216 125.243 99.8832 123.959 98.6297 122.717C96.9474 121.05 95.5354 118.702 94.2353 116.079C93.457 114.514 92.7161 112.846 91.9658 111.183ZM94.156 98.7164C93.6947 101.354 93.2427 103.992 92.7907 106.582C93.8159 108.677 94.7712 110.888 95.7544 113.005C97.1757 116.065 98.6343 118.918 100.522 120.787C102.12 122.375 103.849 124.02 105.69 125.697L106.249 125.547C107.307 124.395 108.43 123.223 109.623 122.029C115.215 116.416 121.445 111.272 126.268 105.093C124.297 105.472 122.349 105.823 120.453 106.105C112.535 107.271 105.447 107.177 100.75 103.406C98.5365 101.63 96.3136 100.084 94.156 98.7164ZM129.582 105.13C124.516 112.106 117.68 117.775 111.524 123.945L111.235 124.235C116.543 122.877 121.785 121.649 126.264 120.773C129.153 115.695 131.217 110.438 129.582 105.13ZM89.99 107.004C89.5845 106.212 89.1651 105.444 88.7318 104.708C87.1846 102.104 85.4231 99.9579 83.0325 99.0678C80.6699 98.1917 77.7481 98.618 73.9128 100.843C72.4729 101.682 69.8493 103.191 67.5053 105.289L67.6358 105.374C74.9054 110.063 81.793 117.423 85.0503 120.806C85.6328 121.415 86.2247 122.033 86.8165 122.661C87.9908 117.901 89.002 112.56 89.99 107.004ZM151.54 102.249C145.715 101.471 138.874 102.628 132.037 103.964C133.86 109.431 132.34 114.879 129.656 120.155C131.502 119.841 133.151 119.616 134.535 119.499C136.432 119.335 138.976 119.415 141.782 119.696C143.972 118.834 146.307 118.084 148.753 117.494C147.788 116.922 146.987 115.592 146.982 112.912C146.973 110.316 148.282 106.793 151.54 102.249ZM154.466 102.82C151.139 107.201 149.671 110.476 149.676 112.907C149.676 113.704 149.746 114.317 149.899 114.767C149.965 114.954 150.011 115.1 150.128 115.165C150.389 115.32 150.724 115.184 151.13 115.058C151.889 114.819 152.765 114.369 153.721 113.853C155.99 112.626 158.646 111.019 161.256 110.284C163.246 109.721 165.208 109.656 167.016 110.424C168.898 111.23 170.669 112.968 172.021 116.257L172.37 117.105C175.199 117.095 178.177 116.571 181.178 115.667C176.285 111.9 167.314 105.983 154.466 102.82ZM169.364 116.903C168.404 114.725 167.272 113.479 165.963 112.921C164.364 112.237 162.598 112.607 160.841 113.273C158.795 114.055 156.778 115.278 155.002 116.238C154.876 116.304 154.755 116.369 154.634 116.435C159.126 115.891 163.87 115.934 168.684 116.796C168.912 116.833 169.136 116.871 169.364 116.903ZM165.646 92.4807C162.337 94.3454 158.753 97.756 156.349 100.506C170.334 104.202 179.714 110.982 184.221 114.626C184.826 114.397 185.428 114.153 186.033 113.896L186.318 113.774C178.983 106.564 171.461 99.3301 165.646 92.4807ZM201.905 104.029C199.552 102.689 197.185 102.628 194.738 102.61C191.267 102.581 187.646 102.647 183.694 100.44C182.399 99.719 180.907 97.5686 178.992 95.3854C176.606 92.6681 173.358 89.8853 168.237 91.3517C174.122 98.187 181.644 105.392 188.932 112.56C193.625 110.237 198.107 107.229 201.905 104.029ZM98.187 78.5149C96.8402 83.9776 95.7125 89.89 94.6593 95.8492C97.1804 97.4046 99.8133 99.1896 102.432 101.288C106.626 104.657 112.992 104.465 120.061 103.42C122.708 103.031 125.453 102.516 128.221 101.982C125.807 96.73 125.103 90.7567 125.574 84.9801C116.608 82.2301 106.71 79.6159 98.187 78.5149ZM204.026 102.155C205.825 100.483 207.423 98.7867 208.746 97.1235C210.443 95.0059 211.687 92.9586 212.321 91.1174C212.843 89.5901 212.954 88.2362 212.349 87.1868C211.459 85.6314 208.56 83.3638 204.608 80.8246C194.953 74.617 179.006 67.1539 168.06 65.8187C162.989 65.2003 159.01 65.7953 157.845 69.0654C164.182 72.1949 169.187 73.0382 171.774 74.2282C173.018 74.7998 173.81 75.4931 174.211 76.3224C174.63 77.1984 174.681 78.29 174.09 79.7424C173.489 81.2041 172.002 82.8953 169.952 84.5351C168.586 85.6267 166.969 86.7089 165.236 87.7208L165.338 87.8473C165.515 88.0675 165.692 88.2924 165.869 88.5173L166.373 89.1357C166.75 88.9811 167.118 88.8546 167.482 88.7468C173.894 86.9057 178.032 90.1945 181.014 93.5958C182.086 94.8185 183 96.046 183.82 96.9783C184.244 97.4608 184.626 97.8638 185.003 98.0746C188.489 100.019 191.695 99.8783 194.762 99.9017C197.94 99.9251 200.978 100.108 204.026 102.155ZM135.724 88.2502C135.905 90.8223 135.691 93.1366 135.029 94.9966C134.242 97.2079 133.258 99.2739 132.126 101.232C139.647 99.808 147.164 98.6227 153.404 99.808C155.836 96.8424 160.002 92.7665 163.921 90.3959C163.553 89.9368 163.195 89.4824 162.845 89.0279C161.713 89.6089 160.557 90.1476 159.415 90.6255C156.857 91.6984 154.359 92.4714 152.304 92.7618C150.748 92.9867 149.419 92.9305 148.431 92.5979C145.519 91.6281 141.041 90.0352 135.724 88.2502ZM128.216 85.8C127.904 90.4147 128.403 95.1371 130.066 99.4192C131.003 97.7373 131.823 95.9663 132.494 94.083C133.142 92.2559 133.244 89.9228 132.932 87.3226C131.408 86.8213 129.833 86.3107 128.216 85.8ZM95.4888 78.2104C94.3471 78.1073 93.2427 78.0324 92.1755 77.9949C88.5127 77.8637 85.3113 78.1495 82.8415 79.0584C80.6652 79.8595 79.0948 81.1432 78.4424 83.1436C78.0743 84.268 78.3725 85.2097 79.1181 86.1092C79.7519 86.8822 80.6699 87.6131 81.7976 88.372C84.4212 90.1383 88.0933 91.9841 92.1942 94.3735C93.1821 88.8265 94.2399 83.3264 95.4888 78.2104ZM154.83 70.5458C151.437 68.714 147.719 66.2263 143.813 62.7548C141.577 60.759 138.953 61.7615 136.53 64.2165C134.521 66.2544 132.667 69.2668 131.213 72.8274C133.039 76.6175 134.423 80.595 135.164 84.268C135.234 84.61 135.3 84.9474 135.355 85.2847C141.208 87.2242 146.139 88.9764 149.28 90.0258C149.955 90.2507 150.864 90.232 151.927 90.0821C153.791 89.815 156.055 89.0982 158.381 88.1237C159.317 87.7302 160.268 87.2945 161.205 86.826C157.006 80.9417 154.518 75.4135 154.825 70.5833L154.83 70.5458ZM157.5 71.8951C157.654 76.0413 159.998 80.6419 163.586 85.5517C165.315 84.5632 166.927 83.4903 168.274 82.4128C169.886 81.1244 171.126 79.8595 171.597 78.7117C171.802 78.2104 171.923 77.845 171.797 77.5358C171.676 77.2266 171.35 77.0438 170.935 76.833C170.338 76.5191 169.569 76.2474 168.656 75.9523C165.963 75.0762 162.104 74.0642 157.5 71.8951ZM129.913 76.5051C129.502 77.8731 129.153 79.2973 128.873 80.7496C128.724 81.5133 128.598 82.2863 128.491 83.0687C129.829 83.4856 131.143 83.9073 132.424 84.3196C131.874 81.7944 131.012 79.1333 129.913 76.5051ZM128.272 72.9633C127.308 71.0752 126.236 69.2528 125.075 67.5568C121.301 62.038 116.683 57.8121 112.06 57.7465C109.749 57.7138 107.488 58.81 105.382 61.3024C103.043 64.0665 100.927 68.447 99.1516 74.8279C99.0537 75.1746 98.9605 75.5259 98.8673 75.8773C107.311 77.0157 117.032 79.569 125.882 82.2629C125.979 81.5836 126.096 80.9042 126.226 80.2343C126.716 77.6857 127.415 75.2355 128.272 72.9633Z" fill="black"/>
</g>
<mask id="mask1_91_38" style="mask-type:luminance" maskUnits="userSpaceOnUse" x="7" y="4" width="538" height="359">
<path d="M7.41412 4.92853H544.824V362.034H7.41412V4.92853Z" fill="white"/>
</mask>
<g mask="url(#mask1_91_38)">
<path fill-rule="evenodd" clip-rule="evenodd" d="M250.235 93.2866C233.426 62.8907 205.918 42.2067 175.054 33.4552C159.219 28.9623 142.495 27.6505 125.909 29.7025C109.856 31.6889 93.9416 36.8986 79.0202 45.4486C77.4172 46.3716 75.7256 47.4069 74.0573 48.4751C72.403 49.5339 70.7719 50.6255 69.2528 51.6562C39.4379 72.1107 23.1044 92.9727 14.8329 112.701C1.29546 144.999 9.26412 174.308 15.3548 194.168C15.6717 195.198 16.6177 197.705 17.8898 200.942C21.0121 208.897 26.1195 221.42 28.3703 227.103C28.9668 228.611 29.5353 232.12 30.1923 236.843C31.6742 247.44 33.4171 263.861 35.8636 278.501C36.8236 284.222 37.7323 292.865 40.6634 298.679C42.383 302.09 44.7876 304.582 48.0636 305.449C50.608 306.119 52.6025 306.044 55.007 305.187C57.0901 304.447 59.5319 303.046 63.1435 300.923C65.2684 299.677 66.7923 298.651 68.0039 297.986C68.8054 297.55 69.3087 297.18 69.8959 297.466C71.0376 298.023 72.1653 299.649 74.2437 302.559C77.5989 307.253 82.9067 315.058 92.6695 327.197C106.221 344.048 114.12 352.411 121.492 354.294C125.457 355.306 129.316 354.59 133.785 352.252C139.484 349.277 146.279 343.599 155.915 335.756C157.938 334.116 159.564 333.315 161.079 333.371C162.747 333.442 164.182 334.557 165.767 336.365C169.938 341.125 174.7 350.476 183.866 361.865C184.221 362.306 184.859 362.376 185.302 362.025C185.74 361.668 185.81 361.027 185.46 360.582C176.387 349.047 171.704 339.612 167.57 334.786C165.469 332.331 163.432 331.01 161.191 330.898C159.21 330.795 156.992 331.643 154.326 333.76C144.801 341.341 138.105 346.859 132.494 349.717C128.743 351.624 125.532 352.294 122.237 351.418C115.238 349.549 108.034 341.261 95.2977 325.084C83.1583 309.661 78.0369 301.214 74.9334 297.232C73.6099 295.536 72.5381 294.561 71.5548 294.069C70.1894 293.385 68.88 293.414 67.2117 294.126C65.8043 294.73 63.9962 295.967 61.2095 297.56C57.873 299.476 55.6268 300.769 53.7069 301.429C52.1085 301.982 50.785 302.01 49.1028 301.547C46.1763 300.745 44.5266 297.841 43.315 294.402C41.4463 289.103 40.8265 282.441 40.0949 277.808C37.7882 263.186 36.2085 246.789 34.8291 236.21C34.1394 230.935 33.4544 227.042 32.802 225.351C30.882 220.385 26.8371 210.209 23.8034 202.394C22.0093 197.775 20.574 193.994 20.1826 192.687C14.4973 173.69 6.9341 145.683 19.9962 114.903C28.0208 95.9805 43.809 76.0367 72.4915 56.4395L81.8628 50.4006C96.0573 42.0567 111.244 36.9689 126.576 34.8232C142.518 32.5931 158.614 33.5817 173.973 37.503C204.412 45.2753 231.939 64.582 249.354 93.802C249.494 94.0456 249.806 94.1299 250.048 93.9894C250.295 93.8488 250.379 93.5349 250.235 93.2866ZM275.674 187.74C271.517 179.185 268.33 170.073 266.205 160.562C264.159 151.38 263.11 141.818 263.213 131.998C263.492 98.07 277.463 67.5147 299.706 45.3971C321.855 23.3778 352.252 9.6978 385.851 9.79619C387.622 9.79619 389.518 9.85241 391.41 9.93674C393.316 10.0258 395.222 10.1522 397.002 10.2834C431.71 12.832 455.393 22.1879 471.805 34.5842C498.526 54.767 505.903 82.9563 510.423 102.352C510.731 103.683 511.36 107.693 512.101 112.612C513.35 120.904 514.887 131.755 515.689 137.021C515.959 138.796 517.297 142.488 519.305 147.37C523.35 157.231 530.107 172.242 535.359 186.077C537.027 190.471 539.795 196.576 540.802 202.113C541.473 205.777 541.454 209.192 539.273 211.399C538.015 212.673 536.822 213.324 535.117 213.657C533.117 214.046 530.517 214.051 526.659 214.065C523.462 214.074 521.286 213.91 519.771 214.093C518.028 214.303 516.915 214.913 516.09 216.149C515.493 217.054 515.06 218.422 514.757 220.525C514.039 225.529 513.788 235.419 510.908 254.866C507.879 275.278 505.74 286.077 500.59 291.202C498.172 293.61 495.059 294.636 490.865 294.861C484.583 295.194 476.046 293.765 464.032 291.966C460.645 291.455 458.282 291.844 456.604 292.931C454.694 294.163 453.566 296.351 452.956 299.57C451.763 305.819 452.373 316.351 450.22 330.893C450.122 331.554 450.574 332.167 451.227 332.27C451.879 332.369 452.494 331.914 452.592 331.259C454.838 316.782 454.288 306.292 455.519 300.071C455.98 297.738 456.642 296.07 458.035 295.184C459.302 294.379 461.087 294.257 463.627 294.655C475.878 296.571 484.597 298.061 491.009 297.761C496.042 297.522 499.747 296.201 502.669 293.324C508.107 287.979 510.768 276.759 514.077 255.353C516.462 239.93 517.161 230.504 517.716 224.751C518.07 221.148 518.243 219.152 518.96 218.084C519.352 217.503 520.004 217.536 520.983 217.508C522.362 217.466 524.193 217.588 526.659 217.597C530.825 217.611 533.625 217.592 535.788 217.185C538.253 216.721 539.986 215.793 541.822 213.961C544.18 211.605 545.005 208.293 544.791 204.54C544.432 198.051 540.914 190.148 538.896 184.732C533.709 170.832 527.017 155.751 523.014 145.842C521.216 141.382 519.958 138.033 519.72 136.412C518.942 131.141 517.464 120.286 516.257 111.989C515.516 106.906 514.878 102.764 514.561 101.387C509.957 81.2088 502.277 51.9513 474.587 30.8784C457.667 17.9995 433.234 8.16114 397.361 5.42513C395.539 5.28927 393.587 5.16746 391.634 5.07845C389.663 4.98475 387.692 4.92853 385.851 4.92853C350.989 5.02691 319.394 19.2504 296.672 42.3472C274.047 65.3503 260.249 97.1049 260.533 131.998C260.64 142.01 261.894 151.731 264.201 161.04C266.582 170.626 270.072 179.771 274.509 188.33C274.672 188.653 275.063 188.785 275.385 188.621C275.706 188.457 275.837 188.063 275.674 187.74ZM319.222 283.421C320.461 280.136 321.738 276.562 322.605 272.729C323.43 269.075 323.886 265.243 323.803 261.387C323.747 258.815 323.416 256.238 322.773 253.704C322.144 251.221 321.174 248.794 319.893 246.438C318.108 243.271 313.825 237.667 309.044 231.886C301.295 222.521 292.31 212.636 291.443 211.661C290.413 210.504 289.402 209.328 288.414 208.129C287.422 206.934 286.457 205.721 285.511 204.484C285.376 204.301 285.12 204.259 284.933 204.39C284.747 204.526 284.705 204.784 284.84 204.971C285.711 206.273 286.606 207.557 287.524 208.827C288.442 210.096 289.388 211.347 290.353 212.579C291.262 213.727 301.667 226.747 309.352 237.316C312.581 241.757 315.335 245.744 316.589 248.223C317.689 250.317 318.453 252.49 319.031 254.683C319.627 256.96 319.991 259.265 320.186 261.579C320.485 265.191 320.354 268.799 320.014 272.308C319.646 276.14 319.105 279.818 318.43 283.191C318.364 283.411 318.495 283.641 318.714 283.706C318.933 283.767 319.161 283.641 319.222 283.421ZM159.602 194.125C158.59 194.332 157.579 194.481 156.577 194.57C152.667 194.922 148.963 194.346 146.246 192.542C146.004 192.383 145.719 192.205 145.388 192.003C143.832 196.96 141.143 201.57 136.553 205.369C135.952 205.866 134.712 206.854 132.974 207.876C134.06 208.696 134.987 209.487 135.775 210.242C137.849 212.233 138.99 214.032 139.484 215.564C140.463 218.595 139.191 220.816 136.926 222.052C134.801 223.205 131.674 223.411 128.859 222.394C127.228 221.809 125.56 220.909 123.864 219.78C120.224 226.283 113.998 231.169 104.198 233.189C98.1543 234.43 93.69 234.215 89.7383 232.415C87.0075 231.174 84.5144 229.155 81.9141 226.264C77.9344 228.419 73.9827 230.082 70.3758 231.043C62.7008 233.081 56.5122 231.867 54.1123 226.283C53.4459 224.737 53.1057 221.931 53.1896 218.361C53.3061 213.521 54.1496 207.215 55.7526 200.853C54.0005 196.979 53.0824 192.153 53.0498 187.365L53.0452 186.981C52.472 187.051 51.9081 187.112 51.3582 187.159C43.2917 187.834 37.8022 185.468 36.5207 178.717C36.0221 176.102 34.6427 167.046 35.9708 161.518C36.4974 159.326 37.4806 157.653 38.8926 156.829C40.3419 155.985 42.3457 155.91 45.0392 157.372C52.6677 161.523 59.4993 163.861 65.6599 164.934C67.0299 163.973 68.1856 163.064 69.1456 162.207C64.3597 159.907 59.6345 157.414 55.4777 154.589C48.3758 149.75 42.9329 143.922 41.4091 136.538C40.3838 131.581 41.1015 125.908 44.3356 119.326C45.9293 116.084 48.3292 111.825 51.3582 108.531C53.4879 106.217 55.939 104.385 58.6279 103.612C62.2814 102.563 66.5313 103.706 70.7533 105.997C73.3489 103.519 76.3966 101.729 78.0276 100.783C82.6783 98.084 86.2619 97.7982 89.1278 98.8617C91.812 99.8643 93.923 102.104 95.7031 104.962L96.1971 102.104C96.2903 101.56 96.3835 101.021 96.4767 100.478L96.6445 99.5223C92.2594 96.9128 88.3077 94.9732 85.5536 93.118C81.8908 90.6537 80.2318 88.166 81.257 85.0177C82.1378 82.3098 84.1789 80.4686 87.1287 79.3864C89.7989 78.4072 93.252 78.0559 97.2037 78.1917C98.4199 78.2386 99.6828 78.3276 100.992 78.4588C101.118 77.9809 101.244 77.5077 101.374 77.0392C103.243 70.3444 105.513 65.7766 107.964 62.8766C110.639 59.7143 113.565 58.4447 116.501 58.4868C121.678 58.5618 127.065 62.9938 131.292 69.1779C132.089 70.3398 132.848 71.5672 133.557 72.8275C134.969 69.8666 136.646 67.3601 138.417 65.5658C141.94 61.9959 145.85 61.1245 149.107 64.0244C152.472 67.0181 155.692 69.2247 158.665 70.8973C160.277 66.8823 164.97 65.5939 171.28 66.3622C182.254 67.6974 198.261 75.1371 207.945 81.3588C212.279 84.1463 215.354 86.7464 216.333 88.4564C217.088 89.7682 217.265 91.3752 216.869 93.1929C216.361 95.526 214.86 98.2667 212.6 101.096C211.309 102.713 209.767 104.367 208.033 105.997C212.46 109.928 217.232 115.962 217.582 121.766C217.931 127.646 216.971 131.328 215.298 133.727C214.292 135.161 213.024 136.168 211.57 136.894C213.719 139.986 215.368 142.975 216.333 145.8C218.379 151.802 217.493 157.152 212.134 161.499C208.616 164.357 205.33 165.828 202.208 166.344C201.915 166.391 201.626 166.428 201.337 166.461C198.881 170.167 195.628 173.54 192.063 176.365C193.089 180.83 192.007 184.62 190.078 187.271C187.935 190.213 183.824 194.299 177.785 195.465C175.175 195.971 172.198 195.939 168.861 195.016C175.669 200.394 182.445 211.216 194.915 216.946C208.951 223.416 222.521 223.107 235.369 219.213C244.573 216.426 253.394 211.778 261.796 206.461C267.435 202.891 272.892 199.017 278.116 195.156C286.909 188.663 295.064 182.212 302.38 177.297C309.394 172.589 315.694 169.305 321.09 168.574C321.216 168.555 321.337 168.555 321.459 168.564C328.477 167.749 332.475 171.844 336.245 176.941C339.908 181.884 343.282 187.918 350.178 189.651C353.492 190.485 357.532 189.422 361.344 187.829C367.374 185.308 371.787 182.23 374.164 180.206C374.164 180.206 374.201 180.178 374.266 180.122C375.967 180.019 377.682 179.869 379.406 179.682C377.5 181.692 376.27 182.727 376.27 182.727C374.844 183.936 369.033 188.176 362.597 190.865C358.1 192.748 353.296 193.826 349.386 192.842C341.688 190.907 337.708 184.423 333.621 178.904C330.154 174.219 326.571 170.307 319.324 172.34C319.236 172.364 319.147 172.387 319.059 172.411C314.706 173.746 309.864 176.679 304.529 180.445C297.362 185.51 289.402 192.12 280.735 198.693C275.469 202.694 269.947 206.681 264.196 210.307C255.445 215.821 246.176 220.511 236.557 223.28C222.792 227.248 208.299 227.276 193.438 220.118C180.474 213.844 173.68 202.296 166.638 196.819C164.411 195.086 162.165 193.999 159.602 194.125ZM111.832 209.066C110.438 210.93 109.25 212.322 108.22 213.315C106.044 215.419 104.334 215.91 102.917 215.592C102.017 215.39 101.179 214.842 100.368 213.976C100.163 213.76 99.9624 213.516 99.7527 213.254C95.1719 217.634 89.7383 221.715 84.2534 224.943C86.4203 227.285 88.5174 228.963 90.8194 230.012C94.3331 231.614 98.3034 231.708 103.672 230.602C112.684 228.747 118.37 224.222 121.674 218.206C118.416 215.704 115.098 212.486 111.832 209.066ZM79.5794 195.676C77.6641 198.468 75.6091 201.589 73.4095 204.039C69.6256 208.269 65.3849 210.499 60.7948 207.356C59.6205 206.55 58.572 205.477 57.6586 204.203C56.5169 209.408 55.9064 214.43 55.8132 218.422C55.7433 221.49 55.9484 223.908 56.5215 225.238C58.4415 229.717 63.5535 230.129 69.7048 228.494C72.9901 227.623 76.5597 226.138 80.1712 224.222C79.6213 223.542 79.0621 222.825 78.4936 222.066C76.2894 219.138 75.4926 216.177 74.7936 212.72C73.8988 208.33 75.9632 204.362 78.8245 201.115C80.4182 199.312 82.0166 197.995 83.6103 197.077C82.3754 196.548 81.0333 196.074 79.5794 195.676ZM86.5974 198.581C84.6635 199.293 82.7296 200.661 80.7864 202.868C78.475 205.491 76.6389 208.639 77.3612 212.191C77.981 215.25 78.6334 217.887 80.5813 220.474C81.2384 221.345 81.8768 222.165 82.5059 222.924C88.07 219.701 93.6108 215.54 98.2289 211.076C97.94 210.64 97.6464 210.176 97.3342 209.694C95.13 206.269 92.1429 201.818 86.5974 198.581ZM130.383 209.22C129.419 209.651 128.37 210.054 127.247 210.373C126.744 212.851 126.021 215.217 125.038 217.428C126.632 218.506 128.207 219.359 129.745 219.916C131.814 220.661 134.116 220.581 135.677 219.733C136.399 219.34 136.954 218.773 137.122 218.005C137.313 217.133 137.028 216.084 136.241 214.842C135.192 213.188 133.324 211.31 130.383 209.22ZM116.972 210.57C118.933 212.504 120.891 214.299 122.829 215.817C123.482 214.28 124.004 212.664 124.409 210.987C122.116 211.314 119.609 211.263 116.972 210.57ZM106.668 205.5C105.214 207.478 103.518 209.459 101.635 211.394C101.719 211.507 101.803 211.614 101.887 211.717C102.423 212.378 102.898 212.884 103.49 213.02C103.798 213.085 104.119 213.02 104.487 212.851C105.06 212.589 105.68 212.116 106.403 211.418C107.381 210.471 108.5 209.155 109.809 207.403C108.761 206.798 107.712 206.156 106.668 205.5ZM90.4839 197.976C94.883 201.218 97.5206 205.13 99.5383 208.26L100.121 209.173C101.729 207.496 103.187 205.796 104.459 204.1C101.915 202.483 99.3799 200.9 96.8588 199.733C94.7292 198.74 92.6089 198.056 90.4839 197.976ZM117.186 201.251C115.904 203.238 114.744 204.98 113.686 206.498C114.371 206.826 115.056 207.131 115.746 207.403C119.073 208.71 122.209 208.771 124.959 208.241C125.08 207.501 125.178 206.756 125.257 206.002C123.612 205.069 121.771 204.109 119.716 203.116C118.882 202.713 118.025 202.071 117.186 201.251ZM127.294 183.519C127.023 184.142 126.739 184.77 126.441 185.407C127.582 190.935 128.244 196.562 128.137 201.916C128.118 202.811 128.081 203.692 128.016 204.568C128.948 205.121 129.815 205.669 130.616 206.203C132.732 205.084 134.237 203.87 134.885 203.331C139.209 199.752 141.66 195.376 143.049 190.677C139.144 188.56 133.002 185.613 127.294 183.519ZM86.2526 175.967C79.0295 179.101 71.8391 181.996 65.2917 184.072C64.1034 185.941 63.0363 188.016 62.0763 190.218C60.6364 193.516 59.4481 197.086 58.5067 200.661C59.4947 202.563 60.7435 204.132 62.272 205.177C64.2712 206.545 66.1585 206.372 67.934 205.337C70.0217 204.123 71.9556 201.865 73.7916 199.387C74.8448 197.967 75.8607 196.473 76.844 195.03C72.2818 193.905 70.5669 190.396 70.5389 187.67C70.525 186.288 70.9537 185.083 71.6201 184.329C73.3396 182.38 76.8114 179.265 89.249 185.247C90.4233 184.774 91.3926 184.254 92.1802 183.692C93.5595 182.704 94.3191 181.598 94.5381 180.356C94.7525 179.176 94.5102 177.906 93.9836 176.562C91.1969 176.388 88.5826 176.173 86.2526 175.967ZM112.102 192.996C112.106 193.245 112.092 193.493 112.065 193.737C111.748 196.355 110.639 199.195 108.928 202.099C109.576 202.802 110.228 203.509 110.886 204.221C111.109 204.465 111.338 204.713 111.571 204.957C112.712 203.317 113.98 201.406 115.396 199.19C114.157 197.522 113.043 195.507 112.232 193.357C112.19 193.235 112.144 193.118 112.102 192.996ZM124.498 189.244C123.673 190.771 122.773 192.331 121.795 193.924C120.667 195.756 119.609 197.452 118.621 199.012C119.353 199.78 120.108 200.375 120.853 200.741C122.526 201.546 124.064 202.338 125.471 203.111C125.49 202.699 125.504 202.282 125.513 201.865C125.597 197.761 125.21 193.498 124.498 189.244ZM89.1045 188.11C88.0048 188.499 86.7792 188.86 85.4091 189.187C84.8825 189.314 84.3606 189.712 83.8014 190.246C83.0838 190.921 82.3475 191.82 81.5832 192.842C81.4481 193.024 81.3129 193.202 81.1778 193.39C83.3168 194.036 85.2134 194.828 86.905 195.723C87.4176 195.592 87.9302 195.498 88.4381 195.433C91.607 195.03 94.7805 195.859 97.9586 197.335C100.051 198.309 102.153 199.569 104.259 200.895C99.6828 195.929 95.4002 191.511 91.7654 189.511C90.8334 189 89.9433 188.532 89.1045 188.11ZM96.9194 177.161C97.2456 178.445 97.3248 179.672 97.1198 180.825C96.7283 183.017 95.2744 185.065 92.1941 186.747C92.4644 186.892 92.744 187.042 93.0236 187.196C97.0685 189.422 101.924 194.5 107.083 200.094C108.369 197.784 109.208 195.531 109.46 193.418C109.595 192.275 109.119 191.118 108.453 190.007C107.26 188.03 105.401 186.236 104.17 184.957C101.831 182.525 99.4871 179.663 96.9194 177.161ZM123.006 182.104C122.335 181.912 121.678 181.734 121.049 181.589C119.297 181.172 117.736 180.942 116.501 181.008C115.671 181.05 115.005 181.153 114.693 181.626C112.801 184.507 113.281 188.686 114.688 192.425C115.28 193.999 116.044 195.507 116.906 196.815C117.74 195.484 118.626 194.06 119.563 192.537C121.147 189.956 122.531 187.463 123.696 185.069C123.482 184.076 123.253 183.088 123.006 182.104ZM61.6103 185.168C59.5459 185.739 57.5561 186.213 55.6734 186.564C55.6688 186.822 55.6688 187.084 55.6688 187.346C55.6921 190.532 56.1068 193.751 56.9316 196.627C57.7192 194.065 58.6325 191.539 59.6717 189.159C60.2775 187.777 60.9206 186.437 61.6103 185.168ZM379.551 190.429C375.417 189.712 373.674 189.183 373.283 189.08C371.941 189.932 370.272 190.762 369.257 191.319C376.256 193.568 383.712 194.781 391.452 194.781C431.734 194.781 464.442 161.898 464.442 121.396C464.442 80.8996 431.734 48.016 391.452 48.016C351.166 48.016 318.458 80.8996 318.458 121.396C318.458 149.276 333.957 173.544 356.758 185.964C358.045 185.58 359.704 184.92 360.934 184.381C358.552 183.209 357.933 182.914 354.955 181.068C351.632 179.012 348.501 176.683 345.584 174.116C358.846 177.864 375.729 178.084 392.641 173.99C409.319 169.946 426.016 161.724 439.269 148.616L439.213 148.639C437.671 149.37 436.105 150.073 434.53 150.733C432.983 151.389 431.417 152.008 429.842 152.593L429.8 152.607C418.383 161.649 405.116 167.581 391.876 170.79C372.7 175.437 353.548 174.392 340.113 168.738C337.699 166.1 335.49 163.275 333.5 160.281C355.057 167.688 380.417 167.721 402.594 159.054C398.135 159.546 393.722 159.761 389.383 159.733C369.727 164.451 348.636 162.83 330.727 155.76C329.04 152.753 327.568 149.609 326.328 146.348C332.824 150.087 340.998 152.368 350.025 153.207C350.957 153.296 351.903 153.366 352.853 153.423C348.757 151.98 344.857 150.326 341.194 148.499C334.791 147.032 329.124 144.662 324.637 141.321C323.672 138.061 322.94 134.697 322.456 131.253L322.526 131.319C324.711 133.554 327.079 135.606 329.562 137.494C331.548 139.007 333.607 140.413 335.732 141.724C338.761 143.598 341.911 145.275 345.141 146.775C348.874 148.508 352.713 149.998 356.628 151.258C361.81 152.926 367.122 154.186 372.495 155.048C381.965 156.571 391.634 156.847 401.173 155.882C405.512 155.442 409.832 154.744 414.091 153.793C418.178 152.884 422.209 151.741 426.165 150.373C432.913 148.049 439.427 145.079 445.635 141.551C448.873 139.71 452.023 137.714 455.085 135.587C456.861 134.346 458.608 133.062 460.323 131.736L460.379 131.694C459.787 135.704 458.864 139.607 457.625 143.369C454.018 144.287 450.481 144.868 447.023 145.144C446.017 146.33 444.987 147.482 443.934 148.602C447.951 148.494 452.075 147.997 456.292 147.065C455.821 148.264 455.323 149.45 454.787 150.621C450.187 151.244 445.639 151.506 441.156 151.432C440.038 152.523 438.901 153.577 437.736 154.603C442.755 154.866 447.871 154.73 453.049 154.149C452.056 156.032 450.98 157.864 449.824 159.635C445.005 160.263 440.243 160.516 435.564 160.431C435.131 161.537 434.683 162.624 434.222 163.687C438.528 163.823 442.904 163.678 447.326 163.233C445.979 165.055 444.539 166.803 443.025 168.48C439.288 168.611 435.62 168.602 432.027 168.471C431.524 169.501 431.007 170.513 430.48 171.502C430.448 171.563 430.415 171.628 430.378 171.689C433.453 171.839 436.585 171.891 439.768 171.849C438.179 173.39 436.51 174.861 434.777 176.243C432.377 176.341 430.009 176.384 427.675 176.379C426.976 177.508 426.263 178.6 425.541 179.649C427.055 179.672 428.588 179.672 430.135 179.654C425.326 182.891 420.093 185.543 414.543 187.501C419.133 183.303 423.63 177.288 427.558 169.928C429.394 166.484 431.109 162.75 432.656 158.773C431.002 160.038 429.315 161.246 427.6 162.394C423.993 170.452 419.692 177.26 415.177 182.24C411.565 186.227 407.842 189.033 404.23 190.27C402.417 190.607 400.577 190.879 398.717 191.071C405.847 184.151 411.374 176.824 415.563 169.291C413.834 170.129 412.092 170.921 410.335 171.661C406.029 178.515 400.507 185.154 393.54 191.418C392.846 191.436 392.151 191.45 391.452 191.45C388.819 191.45 386.224 191.3 383.67 191.015C386.373 188.321 390.865 183.448 395.549 176.688C394.836 176.875 394.127 177.053 393.419 177.227C392.515 177.447 391.606 177.653 390.697 177.85C385.613 184.667 381.107 189.005 379.551 190.429ZM189.733 178.098C185.069 181.373 180.054 183.692 175.665 184.624C174.924 186.006 173.717 187.37 172.128 188.616C170.711 189.726 168.996 190.757 167.118 191.638C171.009 193.207 174.402 193.437 177.291 192.875C182.543 191.858 186.099 188.274 187.958 185.716C189.379 183.762 190.157 181.157 189.733 178.098ZM85.5256 186.442C83.0698 185.407 81.0939 184.821 79.4862 184.554C75.9026 183.959 74.4487 185.093 73.5819 186.077C73.2744 186.428 73.1532 187.004 73.1625 187.641C73.1812 189.534 74.5233 191.877 77.8226 192.547C78.0369 192.593 78.2466 192.636 78.461 192.682C79.0948 191.778 79.7192 190.93 80.3204 190.181C81.8815 188.246 83.4193 186.953 84.808 186.62C85.0503 186.564 85.288 186.503 85.5256 186.442ZM153.352 166.494C151.391 167.609 149.396 168.686 147.397 169.675C147.462 174.983 147.574 180.712 146.707 186.245C146.544 187.295 146.344 188.34 146.101 189.375C146.749 189.745 147.285 190.073 147.691 190.345C149.96 191.849 153.078 192.237 156.344 191.942C157.756 191.816 159.196 191.558 160.617 191.193C152.178 185.73 149.266 178.496 149.116 176.042C148.897 172.397 150.682 169.052 153.352 166.494ZM168.856 165.575C167.1 163.795 164.038 163.842 161.037 164.854C156.237 166.47 151.428 170.719 151.735 175.882C151.875 178.22 155.095 185.233 163.963 190.129C166.452 189.178 168.74 187.927 170.515 186.536C171.126 186.058 171.676 185.566 172.151 185.069C168.046 185.205 164.821 183.795 163.255 180.698C162.654 179.504 162.78 178.365 163.507 177.203C164.019 176.374 164.905 175.512 166.014 174.58C166.867 173.868 167.873 173.099 168.922 172.233C168.894 171.703 168.889 171.169 168.894 170.64C168.917 169.075 169.047 167.562 168.992 166.433C168.973 166.105 168.875 165.655 168.856 165.575ZM121.044 175.184C120.359 175.353 119.66 175.507 118.952 175.643C113.099 176.786 106.5 177.011 100.265 176.847C102.274 178.946 104.175 181.167 106.058 183.125C107.395 184.517 109.394 186.489 110.694 188.639C110.858 188.911 111.011 189.187 111.151 189.464C110.541 186.077 110.839 182.713 112.503 180.174C113.085 179.288 114.082 178.693 115.462 178.468C117.023 178.215 119.176 178.436 121.65 179.021C121.841 179.063 122.037 179.115 122.233 179.162C121.86 177.822 121.459 176.491 121.044 175.184ZM144.792 170.907C144.648 170.972 144.498 171.038 144.349 171.104C139.386 173.306 134.503 174.781 130.187 174.833C129.749 176.824 129.111 178.909 128.286 181.087C133.818 183.125 139.713 185.922 143.711 188.049C143.869 187.318 144.004 186.578 144.116 185.833C144.894 180.867 144.857 175.732 144.792 170.907ZM62.4817 167.014C56.8012 165.716 50.5986 163.397 43.7903 159.691C42.2059 158.829 41.0596 158.618 40.2068 159.115C39.3214 159.63 38.8507 160.764 38.5198 162.137C37.2756 167.309 38.6317 175.779 39.0977 178.22C40.1182 183.598 44.713 185.069 51.1392 184.531C51.7916 184.479 52.458 184.404 53.143 184.31C53.4086 180.534 54.2195 176.936 55.5569 174.055C56.7639 171.45 58.4042 169.417 60.422 168.246C61.1443 167.824 61.8293 167.417 62.4817 167.014ZM66.2237 167.735C64.905 168.625 63.4137 169.553 61.7361 170.527C60.1377 171.455 58.8888 173.109 57.9335 175.165C56.7918 177.63 56.0882 180.661 55.8086 183.861C58.2504 183.388 60.86 182.713 63.5908 181.874C64.6999 180.221 65.8975 178.735 67.1791 177.47C70.3153 174.374 73.978 172.565 78.1441 172.682C79.8497 172.734 82.5479 173.001 85.8705 173.301C87.0448 172.785 88.2191 172.265 89.3934 171.745C86.9376 170.429 84.1882 169.122 81.271 167.782C76.7228 168.489 71.7366 168.597 66.2237 167.735ZM169.392 175.231C168.087 176.276 166.922 177.18 166.158 178.037C165.702 178.557 165.333 178.984 165.594 179.504C166.447 181.186 168.041 182.062 170.04 182.343C171.182 182.502 172.449 182.474 173.801 182.282C173.857 182.005 173.875 181.729 173.857 181.457C173.782 180.399 173.069 179.433 171.704 178.525C170.539 177.752 169.807 176.599 169.392 175.231ZM178.717 162.619C177.585 167.412 174.593 170.757 171.657 173.343L171.694 173.582C171.89 174.711 172.258 175.732 173.148 176.323C175.39 177.812 176.354 179.541 176.471 181.27C176.485 181.42 176.485 181.57 176.485 181.715C177.011 181.574 177.552 181.406 178.093 181.223C181.667 180.019 185.497 178 189.067 175.386C187.734 171.558 184.57 167.201 178.717 162.619ZM80.777 175.484C79.7099 175.4 78.8012 175.343 78.0696 175.32C74.6211 175.222 71.6154 176.786 69.0151 179.354C68.6656 179.696 68.3254 180.061 67.9899 180.441C72.0954 179.021 76.4059 177.321 80.777 175.484ZM124.744 174.097C124.358 174.233 123.966 174.364 123.57 174.491C124.143 176.295 124.679 178.14 125.173 180.01C125.383 180.08 125.597 180.15 125.816 180.221C126.553 178.295 127.13 176.444 127.541 174.669C127.214 174.622 126.897 174.566 126.581 174.5C125.965 174.369 125.35 174.238 124.744 174.097ZM105.694 167.192C102.241 168.77 98.6483 170.424 95.0041 172.073C95.8662 172.706 96.6957 173.399 97.5066 174.135C104.366 174.435 111.883 174.341 118.453 173.057C118.826 172.982 119.199 172.903 119.572 172.823C114.255 171.375 109.553 169.604 105.881 167.309L105.694 167.192ZM92.1941 173.338L91.2714 173.755L92.6415 173.854L92.1941 173.338ZM179.104 156.576C179.202 157.648 179.211 158.67 179.15 159.64C185.796 164.587 189.496 169.394 191.225 173.708C193.806 171.572 196.187 169.131 198.14 166.48C192.576 165.955 187.427 162.633 182.231 158.862C181.191 158.108 180.152 157.335 179.104 156.576ZM122.918 141.045C122.675 141.954 122.545 142.844 122.545 143.715C122.554 145.561 121.981 146.887 121.026 147.801C120.103 148.686 118.78 149.201 117.107 149.319C115.546 149.426 113.649 149.187 111.505 148.649C112.251 149.787 112.973 150.926 113.658 152.064C117.144 151.188 120.317 151.455 123.365 153.619C124.325 154.303 125.187 155.034 125.961 155.817C127 155.47 127.979 155.175 128.883 154.936C131.366 154.285 133.37 154.06 134.764 154.308C135.789 154.486 136.548 154.908 137.07 155.507C137.606 156.131 137.918 156.964 137.886 158.065C137.718 164.034 135.02 168.236 130.784 171.127C130.751 171.478 130.709 171.839 130.658 172.2C134.95 172.05 139.829 170.345 144.755 168.021C144.75 167.299 144.745 166.592 144.75 165.894C144.764 161.64 145.011 157.784 146.027 154.669C138.226 151.371 130.262 146.451 122.918 141.045ZM125.15 158.876C123.16 159.593 120.965 160.473 118.603 161.467C119.893 164.334 121.166 167.487 122.345 170.827C123.081 171.01 123.831 171.188 124.586 171.361C125.905 170.865 127.14 170.288 128.267 169.618C128.459 165.416 127.457 161.799 125.15 158.876ZM116.189 162.497C113.789 163.533 111.249 164.671 108.616 165.866C111.631 167.524 115.247 168.869 119.264 170.007C118.276 167.346 117.237 164.821 116.189 162.497ZM99.6176 161.485C96.6771 162.961 93.4896 164.413 90.0132 165.599C91.1736 167.093 92.292 168.56 93.2799 169.993C96.6631 168.457 100.009 166.915 103.243 165.43C101.794 164.245 100.573 162.933 99.6176 161.485ZM169.038 157.049C166.531 158.515 163.628 160.342 160.492 162.258C164.485 160.993 168.474 161.382 170.781 163.781C171.103 164.118 171.359 164.615 171.489 165.276C171.676 166.203 171.624 167.599 171.564 169.145C171.555 169.384 171.545 169.623 171.536 169.867C173.763 167.613 175.739 164.755 176.354 160.89C174.257 159.508 171.699 158.295 169.038 157.049ZM87.3337 166.442C86.7605 166.606 86.178 166.761 85.5909 166.906C86.7652 167.463 87.9022 168.016 88.988 168.569C88.4521 167.866 87.8976 167.154 87.3337 166.442ZM130.896 167.707C133.519 165.365 135.146 162.216 135.267 157.995C135.272 157.719 135.248 157.489 135.141 157.311C135.006 157.086 134.745 156.993 134.423 156.927C134.037 156.843 133.58 156.824 133.058 156.852C131.655 156.932 129.875 157.335 127.783 157.986C129.735 160.755 130.761 164.011 130.896 167.707ZM148.469 155.648C147.569 158.51 147.388 162.034 147.374 165.903C147.369 166.18 147.369 166.456 147.374 166.737C152.537 164.1 157.654 160.937 162.137 158.173C160.436 158.468 158.837 158.51 157.374 158.229C154.476 157.681 151.493 156.796 148.469 155.648ZM71.6993 163.411C71.0376 164.062 70.264 164.737 69.3832 165.439C71.8531 165.678 74.2064 165.721 76.4572 165.594C74.8914 164.882 73.2977 164.156 71.6993 163.411ZM82.8275 136.679C82.6131 136.697 82.4034 136.711 82.189 136.721C79.0342 136.871 75.665 136.266 72.6499 135.84C70.8139 135.578 69.1223 135.381 67.7289 135.531C66.9321 135.62 66.2424 135.807 65.7531 136.266C65.2731 136.711 65.0168 137.405 64.9376 138.379C64.7791 140.347 65.6133 142.005 66.7923 143.537C68.139 145.299 69.9331 146.887 71.5082 148.499C73.6845 150.719 75.4133 153.015 75.5764 155.629C75.6836 157.349 75.1477 159.251 73.5214 161.382C76.2382 162.643 78.9363 163.847 81.5273 165.027C82.9067 164.793 84.2441 164.503 85.5396 164.165C82.2356 159.972 78.9969 155.657 77.4544 151.549C76.2661 148.386 76.0518 145.332 77.3333 142.488C78.2606 140.441 79.9942 138.473 82.8275 136.679ZM112.456 155.189C109.488 156.248 106.258 158.037 102.619 159.944C102.409 160.052 102.199 160.164 101.99 160.272C103.005 161.738 104.348 163.036 105.951 164.193C109.143 162.732 112.209 161.35 115.075 160.108C114.283 158.473 113.402 156.833 112.456 155.189ZM188.913 144.498C185.185 146.69 181.196 149.272 177.249 151.605C177.398 151.68 177.543 151.769 177.673 151.867C177.99 152.116 178.251 152.439 178.433 152.856C180.236 154.121 182.007 155.442 183.764 156.721C189.016 160.534 194.142 164.029 199.855 163.917C200.74 162.441 201.486 160.919 202.059 159.358C202.66 157.728 202.809 156.496 202.534 155.507C202.232 154.425 201.411 153.699 200.372 153.034C199.067 152.209 197.422 151.516 195.708 150.677C192.287 149.014 190.223 146.934 188.988 144.638L188.913 144.498ZM209.054 137.859C208.728 137.953 208.397 138.042 208.061 138.122C204.618 138.946 200.596 139.073 196.956 140.441C195.176 141.111 193.242 142.066 191.211 143.186C192.217 145.14 193.955 146.892 196.849 148.307C198.667 149.187 200.396 149.932 201.77 150.808C203.411 151.848 204.585 153.09 205.06 154.795C205.447 156.201 205.372 157.962 204.52 160.277C204.124 161.354 203.648 162.413 203.108 163.453C205.452 162.835 207.894 161.556 210.489 159.447C214.851 155.91 215.517 151.539 213.854 146.658C212.898 143.861 211.23 140.918 209.054 137.859ZM87.5201 137.166C83.2469 139.073 80.7957 141.204 79.7239 143.575C78.4563 146.386 79.1973 149.445 80.7864 152.607C82.5385 156.093 85.3346 159.672 88.098 163.172L88.2611 163.378C91.9472 162.202 95.2931 160.698 98.364 159.166C97.5439 157.255 97.1291 155.133 97.1711 152.767C97.2223 150.064 97.8887 147.084 99.2774 143.818C95.4002 141.884 91.3693 139.588 87.5201 137.166ZM68.9126 107.988C65.5713 106.236 62.2581 105.313 59.3502 106.147C57.0947 106.798 55.0723 108.382 53.2828 110.326C50.4309 113.423 48.1894 117.442 46.6889 120.497C43.767 126.428 43.054 131.535 43.9767 135.999C45.3701 142.746 50.4588 147.983 56.9503 152.401C61.2375 155.325 66.1352 157.878 71.0795 160.235C72.4775 158.562 73.0414 157.128 72.9575 155.793C72.8317 153.765 71.3265 152.073 69.6396 150.345C67.9899 148.663 66.1259 146.99 64.7139 145.149C63.1295 143.083 62.1089 140.815 62.3233 138.164C62.4724 136.369 63.0829 135.156 63.9683 134.331C64.8444 133.516 66.0234 133.062 67.4493 132.912C69.0244 132.739 70.9397 132.935 73.0134 133.226C75.8747 133.633 79.0715 134.228 82.0679 134.088C82.3009 134.074 82.5292 134.06 82.7622 134.041C79.8264 132.031 77.1096 130.007 74.7796 128.091C70.6088 124.662 67.6917 121.527 66.8528 119.452C65.2358 115.46 66.1678 111.937 68.1577 109.009C68.3953 108.658 68.647 108.316 68.9126 107.988ZM123.165 156.805C122.755 156.449 122.317 156.107 121.851 155.774C119.707 154.252 117.475 153.985 115.061 154.453C115.937 155.999 116.753 157.541 117.493 159.073C119.502 158.229 121.403 157.466 123.165 156.805ZM101.617 144.943C100.428 147.796 99.8413 150.415 99.7947 152.814C99.7574 154.716 100.084 156.421 100.722 157.962C100.95 157.845 101.179 157.723 101.407 157.606C104.963 155.742 108.155 154.004 111.091 152.889C109.968 151.052 108.765 149.22 107.502 147.402C105.643 146.728 103.662 145.894 101.617 144.943ZM175.469 154.013C175.217 154.06 174.942 154.139 174.635 154.242C174.239 154.378 173.801 154.552 173.33 154.767C172.864 154.978 172.365 155.222 171.834 155.498C173.498 156.29 175.101 157.082 176.545 157.925C176.522 156.843 176.392 155.695 176.149 154.472L175.991 154.364C175.879 154.289 175.767 154.214 175.655 154.139L175.469 154.013ZM155.757 149.033C155.109 149.206 154.452 149.417 153.786 149.67C151.81 150.415 150.454 151.642 149.513 153.24C152.346 154.303 155.142 155.123 157.863 155.639C159.853 156.018 162.104 155.685 164.532 154.903C162.822 154.046 161.153 153.137 159.616 152.125C158.199 151.193 156.894 150.171 155.757 149.033ZM171.727 151.699L171.569 151.61C167.701 149.483 163.595 148.072 159.042 148.457C159.676 148.972 160.352 149.459 161.055 149.923C163.148 151.3 165.487 152.49 167.836 153.615C169.103 153.048 170.408 152.401 171.727 151.699ZM372.952 53.8487C375.99 52.9164 378.716 52.4526 381.694 52.031C401.21 76.0601 408.876 98.1168 409.976 117.26C410.284 122.68 410.065 127.866 409.449 132.79C410.652 132.059 411.835 131.305 412.986 130.523C413.396 126.212 413.504 121.724 413.238 117.072C412.138 97.8217 404.645 75.6806 385.553 51.5953C386.438 51.5016 389.192 51.3704 390.665 51.3517C392.291 51.3329 395.124 51.4032 396.471 51.5297C402.599 56.6363 412.385 71.9373 418.345 91.675C421.155 100.984 423.108 111.282 423.402 121.982C424.497 120.89 425.541 119.766 426.538 118.609C425.965 108.789 424.082 99.3443 421.477 90.7193C416.206 73.2678 407.958 59.2036 401.686 52.1013C405.535 52.6728 409.286 53.5583 412.907 54.7389C414.109 55.1277 415.013 55.451 416.192 55.9008C417.344 56.3411 418.481 56.8096 419.599 57.3109C429.455 70.9675 434.711 86.0156 436.673 100.942C437.535 98.2995 438.179 95.5448 438.579 92.687C436.282 81.6445 432.116 70.6677 425.596 60.3327C427.488 61.4056 429.329 62.5674 431.105 63.8089C432.069 64.4789 433.183 65.3128 433.355 65.444C435.951 67.4117 438.407 69.5621 440.704 71.8671C448.556 105.425 427.773 128.925 400.996 140.965C392.659 144.709 383.745 147.356 374.9 148.85C378.437 149.361 382.072 149.693 385.776 149.839C391.42 148.33 396.993 146.367 402.334 143.968C429.054 131.951 449.899 108.972 444.936 76.5192C448.1 80.3234 450.868 84.4696 453.179 88.8921C449.181 114.669 437.037 133.137 421.011 145.116C424.045 144.165 427.088 143.064 430.121 141.804C442.303 130.335 451.53 114.547 455.593 94.0175C457.294 98.0231 458.627 102.221 459.559 106.568C457.061 116.182 453.268 124.652 448.505 132.05C450.667 130.635 452.82 129.126 454.959 127.52C457.182 123.322 459.13 118.834 460.747 114.041C460.999 116.458 461.129 118.913 461.129 121.396C461.129 123.387 461.045 125.36 460.882 127.313C460.654 127.365 460.43 127.473 460.23 127.632C406.938 170.49 343.468 152.162 321.901 125.721C321.817 124.292 321.771 122.849 321.771 121.396C321.771 120.244 321.799 119.091 321.855 117.944C322.269 119.424 322.754 120.904 323.304 122.375C323.612 122.614 323.896 122.895 324.147 123.209C325.9 125.416 327.959 127.562 330.289 129.623C326.053 122.122 323.667 114.336 323.295 106.775C323.919 103.837 324.721 100.97 325.699 98.1777C327.507 108.227 332.377 118.717 339.987 128.527C340.336 127.215 340.714 125.903 341.115 124.591C333.3 113.905 328.826 102.507 328.244 91.8999C330.136 87.8146 332.41 83.9355 335.015 80.3234C335.849 90.6396 339.661 101.452 345.873 111.75C346.404 110.537 346.958 109.328 347.531 108.119C341.543 97.6202 338.169 86.6481 338.118 76.3412C340.416 73.5864 342.927 71.0191 345.616 68.6532C345.448 78.4869 347.979 88.686 352.69 98.4822C353.357 97.3719 354.042 96.2663 354.75 95.1653C350.397 85.4815 348.296 75.4417 349.018 65.8469C352.737 62.975 356.74 60.4733 360.99 58.3885C360.379 62.1411 360.547 66.7183 361.479 71.8155C362.089 75.1653 363.035 78.7446 364.284 82.455C365.109 81.5134 365.948 80.5811 366.815 79.6581C365.897 76.73 365.188 73.9003 364.694 71.2205C363.641 65.4627 363.59 60.4311 364.727 56.6925C366.316 56.0272 367.933 55.4229 369.583 54.8747C394.192 85.6502 399.929 111.853 397.837 132.261C397.599 134.636 397.249 136.932 396.811 139.143C397.762 138.749 398.708 138.342 399.645 137.925C399.901 137.803 400.162 137.686 400.428 137.569C400.698 135.952 400.922 134.294 401.094 132.598C403.224 111.802 397.613 85.1114 372.952 53.8487ZM140.272 123.767C139.657 123.776 139.079 123.8 138.561 123.847C136.767 124.001 134.512 124.338 131.958 124.816C131.744 125.177 131.529 125.533 131.315 125.894C128.906 129.848 126.175 133.671 124.386 137.292C124.19 137.691 124.004 138.084 123.836 138.478C131.189 143.959 139.205 148.963 147.043 152.256C148.273 149.974 150.123 148.232 152.863 147.201C153.208 147.07 153.553 146.948 153.893 146.84C153.003 145.58 152.309 144.189 151.866 142.647C151.591 141.682 151.409 140.651 151.344 139.555C142.546 142.076 136.632 142.624 133.091 141.982C129.172 141.275 127.704 139.18 127.867 136.688C128.025 134.299 130.024 131.183 133.566 128.222C135.411 126.676 137.676 125.154 140.272 123.767ZM186.14 119.475C182.776 120.633 179.411 121.354 176.201 121.495C179.178 129.042 180.52 133.708 180.725 136.374C180.87 138.281 180.423 139.41 179.803 140.019C179.108 140.698 178.083 140.942 176.76 140.605C175.497 140.281 173.833 139.377 171.969 138.187C170.012 136.941 167.803 135.367 165.599 133.985C164.453 134.875 162.686 135.803 160.147 136.707C157.952 137.489 155.883 138.178 153.944 138.782C153.954 139.907 154.107 140.947 154.387 141.916C154.844 143.505 155.627 144.891 156.647 146.119C162.617 144.971 167.896 146.583 172.831 149.3C173.358 149.59 173.889 149.895 174.411 150.213C178.969 147.609 183.633 144.559 187.953 142.034C187.217 139.344 187.301 136.444 187.599 133.54C187.902 130.607 188.41 127.679 188.284 125.032C188.186 122.924 187.669 121.007 186.14 119.475ZM110.699 131.174C108.262 133.989 106.272 136.646 104.683 139.152C106.226 141.139 107.726 143.158 109.157 145.196C109.739 145.393 110.312 145.575 110.867 145.739C113.22 146.437 115.289 146.803 116.925 146.69C117.89 146.62 118.682 146.405 119.213 145.894C119.716 145.416 119.931 144.69 119.926 143.729C119.917 142.319 120.196 140.862 120.686 139.372C117.158 136.683 113.798 133.905 110.699 131.174ZM391.793 102.521C392.175 103.884 392.515 105.229 392.822 106.559C384.938 117.503 379.136 130.096 375.515 142.272C375.193 143.359 374.886 144.446 374.602 145.524C373.423 145.725 372.248 145.908 371.079 146.067C371.475 144.498 371.908 142.919 372.383 141.331C376.34 128.007 382.864 114.247 391.793 102.521ZM357.933 144.877C356.875 144.526 355.826 144.16 354.796 143.781C358.347 121.865 368.865 101.185 385.446 85.786C385.953 86.8448 386.433 87.8943 386.895 88.939C371.163 103.889 361.232 123.809 357.933 144.877ZM103.248 141.584C103.066 141.912 102.894 142.24 102.726 142.563C103.374 142.867 104.012 143.153 104.646 143.43C104.184 142.811 103.718 142.193 103.248 141.584ZM96.952 133.844C94.4542 134.627 92.2734 135.348 90.5585 135.966C93.8112 137.958 97.1571 139.832 100.391 141.439C100.741 140.759 101.113 140.071 101.519 139.372C100.023 137.484 98.4898 135.639 96.952 133.844ZM190.749 117.634C190.325 117.826 189.901 118.014 189.472 118.196C189.239 118.295 189.006 118.393 188.769 118.487C191.22 121.645 191.122 125.81 190.619 130.246C190.227 133.713 189.57 137.381 190.316 140.694C192.338 139.583 194.263 138.642 196.038 137.972C198.886 136.899 201.957 136.533 204.832 136.065C205.699 135.92 206.547 135.774 207.362 135.587C205.787 133.549 204.012 131.469 202.11 129.351C198.653 125.519 194.757 121.584 190.749 117.634ZM145.785 124.076C141.539 125.81 137.923 128.007 135.244 130.251C132.415 132.612 130.607 134.955 130.481 136.861C130.397 138.197 131.46 139.007 133.552 139.387C136.996 140.01 142.765 139.363 151.414 136.8C151.544 135.564 151.805 134.242 152.22 132.837C152.845 130.691 153.902 129.426 155.161 128.742C156.423 128.063 157.947 127.955 159.634 128.33C161.27 128.691 163.092 129.534 164.956 130.583C164.942 130.331 164.788 130.101 164.583 129.862C164.238 129.459 163.74 129.084 163.134 128.714C159.415 126.451 152.001 124.746 145.785 124.076ZM344.325 139.148C343.3 138.609 342.298 138.051 341.315 137.484C342.345 132.115 343.813 126.634 345.733 121.162C351.879 103.654 362.663 86.2733 378.539 73.2023C379.127 74.158 379.7 75.1043 380.254 76.046C365.063 88.6766 354.731 105.416 348.818 122.258C346.828 127.922 345.337 133.605 344.325 139.148ZM173.363 121.462C172.598 121.406 171.848 121.317 171.112 121.185C164.085 119.925 157.225 120.567 151.19 122.235C156.372 123.172 161.526 124.657 164.49 126.456C166.447 127.646 167.505 129.07 167.575 130.443C167.598 130.944 167.514 131.46 167.281 131.98C169.402 133.31 171.503 134.767 173.377 135.962C174.886 136.927 176.224 137.709 177.277 138.014C177.538 138.089 177.892 138.108 177.981 138.108C177.999 138.056 178.06 137.915 178.079 137.812C178.144 137.484 178.148 137.077 178.111 136.58C177.906 133.924 176.471 129.211 173.363 121.462ZM107.684 130.682C104.879 131.464 102.171 132.251 99.6828 133.006C100.792 134.313 101.896 135.643 102.982 137.002C104.301 134.983 105.862 132.879 107.684 130.682ZM128.463 125.51C123.612 126.526 118.048 127.89 112.591 129.342C115.429 131.844 118.486 134.383 121.688 136.852C121.799 136.608 121.916 136.365 122.037 136.121C123.71 132.739 126.175 129.183 128.463 125.51ZM163.087 132.518C161.685 131.769 160.324 131.183 159.07 130.907C158.068 130.682 157.155 130.663 156.405 131.066C155.65 131.474 155.109 132.298 154.732 133.582C154.494 134.406 154.308 135.193 154.177 135.948C155.79 135.432 157.486 134.856 159.271 134.219C160.888 133.643 162.146 133.081 163.087 132.518ZM206.062 107.768C202.329 110.982 197.907 114.018 193.252 116.416C197.059 120.183 200.754 123.926 204.054 127.585C206.239 130.007 208.248 132.397 210.009 134.734C210.918 134.327 211.743 133.793 212.446 133.062C214.357 131.094 215.312 127.758 214.963 121.926C214.646 116.65 210.093 111.263 206.062 107.768ZM71.224 109.314C69.1456 111.778 67.8221 114.856 69.2807 118.459C70.0263 120.305 72.7292 122.999 76.4385 126.048C79.2346 128.349 82.5991 130.808 86.2246 133.202C86.7326 132.977 87.2219 132.701 87.6879 132.364C89.1232 131.319 90.2928 129.693 91.0897 127.285C90.1484 126.269 89.2164 125.285 88.2937 124.324C85.2087 121.12 78.6987 114.135 71.8158 109.689C71.6201 109.562 71.4197 109.436 71.224 109.314ZM93.0749 129.45C92.4458 130.935 91.6722 132.134 90.7915 133.095C92.045 132.659 93.4896 132.186 95.074 131.68C94.4076 130.925 93.7413 130.181 93.0749 129.45ZM96.9054 113.127C96.0247 117.934 95.0927 122.507 94.0255 126.587C95.2791 127.955 96.5513 129.375 97.8141 130.827C100.703 129.946 103.923 129.005 107.274 128.072C105.913 126.807 104.618 125.561 103.392 124.353C101.757 122.732 100.382 120.445 99.1189 117.892C98.3594 116.369 97.6417 114.748 96.9054 113.127ZM99.0397 100.993C98.5924 103.561 98.1543 106.128 97.7116 108.653C98.7089 110.687 99.6362 112.842 100.596 114.898C101.98 117.878 103.397 120.656 105.233 122.474C106.794 124.015 108.476 125.617 110.266 127.252L110.811 127.107C111.841 125.988 112.931 124.844 114.092 123.683C119.535 118.22 125.597 113.212 130.29 107.201C128.375 107.571 126.478 107.913 124.633 108.185C116.925 109.319 110.028 109.23 105.457 105.561C103.304 103.828 101.141 102.329 99.0397 100.993ZM133.515 107.238C128.589 114.022 121.93 119.541 115.942 125.547L115.662 125.828C120.825 124.507 125.928 123.312 130.29 122.46C133.1 117.517 135.108 112.401 133.515 107.238ZM94.9855 109.061C94.5894 108.288 94.184 107.538 93.7599 106.826C92.2547 104.292 90.5445 102.202 88.2191 101.335C85.9171 100.483 83.0698 100.9 79.3417 103.064C77.9391 103.879 75.3854 105.35 73.1066 107.393L73.2324 107.473C80.3064 112.04 87.0122 119.199 90.181 122.493C90.7495 123.083 91.3227 123.687 91.8959 124.301C93.0423 119.663 94.0255 114.467 94.9855 109.061ZM154.886 104.432C149.214 103.678 142.555 104.802 135.905 106.1C137.681 111.422 136.199 116.725 133.585 121.855C135.383 121.551 136.986 121.335 138.338 121.218C140.183 121.059 142.658 121.134 145.388 121.41C147.518 120.572 149.792 119.841 152.173 119.269C151.237 118.712 150.454 117.419 150.449 114.809C150.44 112.284 151.717 108.855 154.886 104.432ZM157.733 104.99C154.499 109.248 153.064 112.439 153.068 114.805C153.073 115.582 153.138 116.177 153.287 116.618C153.348 116.796 153.399 116.936 153.511 117.002C153.763 117.152 154.093 117.016 154.485 116.894C155.226 116.665 156.079 116.229 157.011 115.728C159.215 114.528 161.801 112.968 164.341 112.251C166.275 111.708 168.185 111.638 169.942 112.387C171.778 113.17 173.498 114.861 174.817 118.065L175.157 118.89C177.906 118.88 180.805 118.37 183.727 117.489C178.969 113.821 170.236 108.068 157.733 104.99ZM172.23 118.693C171.298 116.575 170.194 115.357 168.922 114.814C167.365 114.153 165.646 114.509 163.935 115.161C161.946 115.92 159.979 117.11 158.255 118.047C158.134 118.112 158.012 118.173 157.896 118.239C162.267 117.709 166.881 117.751 171.569 118.59C171.788 118.628 172.011 118.66 172.23 118.693ZM168.614 94.9264C165.394 96.7394 161.908 100.056 159.564 102.736C173.176 106.33 182.301 112.931 186.686 116.477C187.278 116.252 187.865 116.018 188.452 115.765L188.731 115.648C181.588 108.635 174.271 101.588 168.614 94.9264ZM203.9 106.161C201.612 104.863 199.305 104.802 196.924 104.783C193.545 104.755 190.022 104.821 186.173 102.675C184.915 101.968 183.466 99.8783 181.602 97.7561C179.281 95.1091 176.117 92.3965 171.13 93.8254C176.862 100.478 184.179 107.491 191.276 114.467C195.838 112.204 200.204 109.281 203.9 106.161ZM102.963 81.3353C101.654 86.6481 100.559 92.4059 99.529 98.2058C101.985 99.7191 104.548 101.452 107.092 103.5C111.174 106.779 117.368 106.587 124.251 105.575C126.828 105.196 129.498 104.69 132.191 104.174C129.843 99.0632 129.158 93.2491 129.619 87.6272C120.891 84.9521 111.258 82.4035 102.963 81.3353ZM205.96 104.338C207.712 102.713 209.268 101.064 210.559 99.4473C212.204 97.3813 213.42 95.3902 214.031 93.6005C214.543 92.1107 214.651 90.7942 214.063 89.7729C213.192 88.2597 210.377 86.0531 206.533 83.5841C197.133 77.5405 181.616 70.2789 170.963 68.9811C166.028 68.3768 162.155 68.9577 161.023 72.1388C167.188 75.184 172.058 76.0039 174.574 77.1657C175.786 77.7185 176.559 78.3979 176.946 79.199C177.356 80.0517 177.408 81.1151 176.83 82.53C176.247 83.9542 174.798 85.5939 172.803 87.1915C171.475 88.255 169.9 89.3091 168.213 90.2929L168.311 90.4148C168.484 90.6349 168.656 90.8505 168.833 91.066L169.322 91.6703C169.686 91.5204 170.045 91.3939 170.399 91.2955C176.639 89.5012 180.665 92.701 183.568 96.0086C184.612 97.1986 185.502 98.3932 186.299 99.3021C186.714 99.7753 187.082 100.164 187.45 100.37C190.842 102.263 193.965 102.122 196.947 102.146C200.037 102.174 202.996 102.352 205.96 104.338ZM139.494 90.8083C139.671 93.3147 139.461 95.5682 138.818 97.3766C138.049 99.527 137.094 101.537 135.994 103.444C143.31 102.057 150.626 100.904 156.698 102.057C159.066 99.1709 163.12 95.2075 166.932 92.8978C166.578 92.4527 166.228 92.0076 165.888 91.5673C164.784 92.1341 163.66 92.6542 162.551 93.1227C160.058 94.1674 157.63 94.917 155.627 95.2028C154.117 95.4183 152.821 95.3621 151.857 95.0435C149.023 94.0924 144.666 92.5417 139.494 90.8083ZM132.187 88.4283C131.884 92.9165 132.368 97.5125 133.985 101.677C134.899 100.038 135.696 98.3183 136.348 96.4864C136.982 94.7062 137.08 92.434 136.777 89.9088C135.295 89.4215 133.762 88.9249 132.187 88.4283ZM100.335 81.0402C99.2261 80.9371 98.1497 80.8668 97.1105 80.8294C93.5502 80.7029 90.4326 80.984 88.0327 81.8647C85.9124 82.6424 84.3839 83.8933 83.7455 85.8376C83.3913 86.9338 83.6802 87.8521 84.4026 88.7282C85.0223 89.4778 85.9171 90.1899 87.0122 90.9254C89.5705 92.6448 93.1401 94.4438 97.1338 96.7675C98.0937 91.3705 99.1236 86.0156 100.335 81.0402ZM158.087 73.5817C154.783 71.7968 151.167 69.3793 147.369 65.9968C145.188 64.0572 142.634 65.0317 140.276 67.421C138.324 69.4028 136.516 72.3355 135.099 75.7977C136.879 79.4895 138.226 83.3592 138.948 86.9338C139.018 87.2665 139.079 87.5944 139.135 87.9224C144.829 89.8104 149.629 91.5204 152.686 92.537C153.338 92.7572 154.229 92.7385 155.258 92.5886C157.076 92.3309 159.275 91.6375 161.54 90.6865C162.453 90.3023 163.381 89.8807 164.294 89.4215C160.207 83.6965 157.779 78.3182 158.082 73.6145L158.087 73.5817ZM160.687 74.8935C160.836 78.9273 163.115 83.4014 166.61 88.18C168.288 87.2196 169.858 86.1796 171.172 85.1301C172.738 83.8746 173.945 82.6424 174.402 81.5227C174.602 81.0402 174.719 80.6841 174.598 80.3796C174.481 80.0798 174.16 79.9064 173.759 79.6956C173.181 79.3958 172.431 79.1287 171.545 78.8429C168.917 77.9903 165.166 77.0018 160.687 74.8935ZM133.836 79.3817C133.435 80.7122 133.095 82.0943 132.825 83.5091C132.681 84.254 132.555 85.0083 132.452 85.7673C133.757 86.1749 135.034 86.5825 136.278 86.9854C135.747 84.5258 134.908 81.935 133.836 79.3817ZM132.238 75.9289C131.306 74.0971 130.262 72.3215 129.13 70.6724C125.457 65.2988 120.961 61.1854 116.464 61.1245C114.213 61.0917 112.013 62.1598 109.963 64.5866C107.689 67.2758 105.634 71.5344 103.9 77.7467C103.807 78.084 103.714 78.426 103.625 78.768C111.846 79.8736 121.305 82.3613 129.917 84.9802C130.01 84.3196 130.122 83.6591 130.248 83.0079C130.728 80.5295 131.408 78.1449 132.238 75.9289Z" fill="#A6A6A6"/>
</g>
</svg>
