<svg width="75" height="75" viewBox="0 0 300 310" fill="none" xmlns="http://www.w3.org/2000/svg">
<mask id="mask0_125_53" style="mask-type:luminance" maskUnits="userSpaceOnUse" x="0" y="0" width="313" height="310">
<path d="M0 0H312.188V309.413H0V0Z" fill="white"/>
</mask>
<g mask="url(#mask0_125_53)">
<path d="M245.239 26.5147V114.89C245.239 152.287 216.934 183.016 179.438 186.406C176.31 186.64 173.171 185.648 170.843 183.529C168.536 181.444 167.209 178.489 167.209 175.378V37.5532C167.209 22.3 179.685 9.9347 195.075 9.9347H200.655C203.715 9.9347 206.224 7.45938 206.224 4.41543C206.224 1.37148 203.715 -1.11499 200.655 -1.11499H111.476C108.405 -1.11499 105.896 1.37148 105.896 4.41543C105.896 7.45938 108.405 9.9347 111.476 9.9347H117.045C132.435 9.9347 144.911 22.3 144.911 37.5532V175.378C144.911 178.489 143.584 181.444 141.277 183.529C138.949 185.648 135.81 186.64 132.683 186.406C95.1863 183.016 66.8812 152.287 66.8812 114.89V26.5147C66.8812 11.2504 54.405 -1.11499 39.015 -1.11499H5.56875C2.50875 -1.11499 0 1.37148 0 4.41543C0 7.45938 2.50875 9.9347 5.56875 9.9347H16.7175C32.1187 9.9347 44.5838 22.3 44.5838 37.5532V114.89C44.5838 164.83 83.9588 206.019 134.224 208.672C140.209 208.973 144.911 213.835 144.911 219.7V269.562C144.911 284.827 132.435 297.192 117.045 297.192H111.476C108.405 297.192 105.896 299.667 105.896 302.711C105.896 305.755 108.405 308.231 111.476 308.231H200.655C203.715 308.231 206.224 305.755 206.224 302.711C206.224 299.667 203.715 297.192 200.655 297.192H195.075C179.685 297.192 167.209 284.827 167.209 269.562V219.7C167.209 213.835 171.911 208.973 177.896 208.672C228.173 206.019 267.536 164.83 267.536 114.89V37.5532C267.536 22.3 280.001 9.9347 295.403 9.9347H306.551C309.623 9.9347 312.12 7.45938 312.12 4.41543C312.12 1.37148 309.623 -1.09267 306.574 -1.09267L273.128 -1.11499C257.715 -1.11499 245.239 11.2504 245.239 26.5147Z" fill="#A6A6A6"/>
</g>
<mask id="mask1_125_53" style="mask-type:luminance" maskUnits="userSpaceOnUse" x="22" y="0" width="313" height="310">
<path d="M22.725 0H334.913V309.413H22.725V0Z" fill="white"/>
</mask>
<g mask="url(#mask1_125_53)">
<path d="M254.475 26.5147V114.89C254.475 152.287 226.17 183.016 188.674 186.406C185.535 186.64 182.408 185.648 180.079 183.529C177.773 181.444 176.434 178.489 176.434 175.378V37.5532C176.434 22.3 188.91 9.9347 204.311 9.9347H209.88C212.951 9.9347 215.449 7.45938 215.449 4.41543C215.449 1.37148 212.951 -1.11499 209.88 -1.11499H120.701C117.63 -1.11499 115.133 1.37148 115.133 4.41543C115.133 7.45938 117.63 9.9347 120.701 9.9347H126.281C141.671 9.9347 154.147 22.3 154.147 37.5532V175.378C154.147 178.489 152.82 181.444 150.514 183.529C148.185 185.648 145.046 186.64 141.907 186.406C104.411 183.016 76.1175 152.287 76.1175 114.89V26.5147C76.1175 11.2504 63.6413 -1.11499 48.24 -1.11499H14.805C11.7337 -1.11499 9.22499 1.37148 9.22499 4.41543C9.22499 7.45938 11.7337 9.9347 14.805 9.9347H25.9538C41.3438 9.9347 53.82 22.3 53.82 37.5532V114.89C53.82 164.83 93.1837 206.019 143.46 208.672C149.445 208.973 154.147 213.835 154.147 219.7V269.562C154.147 284.827 141.671 297.192 126.281 297.192H120.701C117.63 297.192 115.133 299.667 115.133 302.711C115.133 305.755 117.63 308.231 120.701 308.231H209.88C212.951 308.231 215.449 305.755 215.449 302.711C215.449 299.667 212.951 297.192 209.88 297.192H204.311C188.91 297.192 176.434 284.827 176.434 269.562V219.7C176.434 213.835 181.136 208.973 187.133 208.672C237.398 206.019 276.761 164.83 276.761 114.89V37.5532C276.761 22.3 289.237 9.9347 304.627 9.9347H315.776C318.848 9.9347 321.345 7.45938 321.345 4.41543C321.345 1.37148 318.848 -1.09267 315.799 -1.09267L282.353 -1.11499C266.94 -1.11499 254.475 11.2504 254.475 26.5147Z" fill="#CAF4FF"/>
</g>
</svg>
