<svg xmlns="http://www.w3.org/2000/svg" xmlns:xlink="http://www.w3.org/1999/xlink" width="1080" zoomAndPan="magnify" viewBox="0 0 810 1439.999935" height="1920" preserveAspectRatio="xMidYMid meet" version="1.0"><defs><g/><clipPath id="c433dc76cf"><path d="M 246.070312 622.171875 L 523.570312 622.171875 L 523.570312 899.671875 L 246.070312 899.671875 Z M 246.070312 622.171875 " clip-rule="nonzero"/></clipPath><clipPath id="1d6299c298"><path d="M 266.273438 622.171875 L 543.773438 622.171875 L 543.773438 899.671875 L 266.273438 899.671875 Z M 266.273438 622.171875 " clip-rule="nonzero"/></clipPath></defs><rect x="-81" width="972" fill="#ffffff" y="-143.999994" height="1727.999922" fill-opacity="1"/><rect x="-81" width="972" fill="#ffffff" y="-143.999994" height="1727.999922" fill-opacity="1"/><g fill="#000000" fill-opacity="1"><g transform="translate(728.999955, 1369.049861)"><g><path d="M 2.96875 -8.765625 C 3.09375 -8.804688 3.207031 -8.800781 3.3125 -8.75 C 3.425781 -8.695312 3.546875 -8.671875 3.671875 -8.671875 C 3.734375 -8.617188 3.804688 -8.578125 3.890625 -8.546875 C 3.972656 -8.523438 4.046875 -8.476562 4.109375 -8.40625 C 4.265625 -8.375 4.390625 -8.289062 4.484375 -8.15625 C 4.578125 -8.019531 4.675781 -7.894531 4.78125 -7.78125 C 4.800781 -7.738281 4.828125 -7.691406 4.859375 -7.640625 C 4.898438 -7.597656 4.910156 -7.546875 4.890625 -7.484375 C 4.890625 -7.421875 4.890625 -7.351562 4.890625 -7.28125 C 4.898438 -7.21875 4.882812 -7.15625 4.84375 -7.09375 C 4.863281 -6.988281 4.832031 -6.929688 4.75 -6.921875 C 4.664062 -6.910156 4.59375 -6.894531 4.53125 -6.875 C 4.382812 -6.914062 4.257812 -6.992188 4.15625 -7.109375 C 4.0625 -7.222656 3.976562 -7.347656 3.90625 -7.484375 C 3.832031 -7.515625 3.765625 -7.503906 3.703125 -7.453125 C 3.640625 -7.398438 3.566406 -7.363281 3.484375 -7.34375 C 3.453125 -7.289062 3.40625 -7.242188 3.34375 -7.203125 C 3.300781 -7.109375 3.238281 -7.023438 3.15625 -6.953125 C 3.082031 -6.890625 3.03125 -6.804688 3 -6.703125 C 2.9375 -6.660156 2.898438 -6.601562 2.890625 -6.53125 C 2.878906 -6.46875 2.851562 -6.414062 2.8125 -6.375 C 2.800781 -6.34375 2.789062 -6.300781 2.78125 -6.25 C 2.769531 -6.207031 2.769531 -6.164062 2.78125 -6.125 C 2.757812 -6.125 2.734375 -6.125 2.703125 -6.125 C 2.679688 -6.125 2.671875 -6.109375 2.671875 -6.078125 C 2.648438 -6.003906 2.613281 -5.929688 2.5625 -5.859375 C 2.519531 -5.796875 2.503906 -5.722656 2.515625 -5.640625 C 2.648438 -5.628906 2.785156 -5.613281 2.921875 -5.59375 C 3.054688 -5.570312 3.1875 -5.539062 3.3125 -5.5 C 3.46875 -5.46875 3.617188 -5.410156 3.765625 -5.328125 C 3.910156 -5.242188 4.0625 -5.21875 4.21875 -5.25 C 4.269531 -5.1875 4.320312 -5.128906 4.375 -5.078125 C 4.4375 -5.035156 4.503906 -5.003906 4.578125 -4.984375 C 4.617188 -4.910156 4.679688 -4.847656 4.765625 -4.796875 C 4.859375 -4.753906 4.929688 -4.691406 4.984375 -4.609375 C 5.015625 -4.546875 5.046875 -4.484375 5.078125 -4.421875 C 5.117188 -4.359375 5.160156 -4.296875 5.203125 -4.234375 C 5.285156 -4.054688 5.335938 -3.875 5.359375 -3.6875 C 5.390625 -3.5 5.398438 -3.3125 5.390625 -3.125 C 5.398438 -3 5.382812 -2.878906 5.34375 -2.765625 C 5.3125 -2.660156 5.265625 -2.554688 5.203125 -2.453125 C 5.203125 -2.390625 5.195312 -2.328125 5.1875 -2.265625 C 5.175781 -2.210938 5.148438 -2.164062 5.109375 -2.125 C 5.066406 -2.03125 5.019531 -1.929688 4.96875 -1.828125 C 4.914062 -1.734375 4.867188 -1.632812 4.828125 -1.53125 C 4.710938 -1.414062 4.617188 -1.285156 4.546875 -1.140625 C 4.535156 -1.085938 4.5 -1.039062 4.4375 -1 C 4.382812 -0.96875 4.335938 -0.9375 4.296875 -0.90625 C 4.296875 -0.875 4.28125 -0.84375 4.25 -0.8125 C 4.226562 -0.789062 4.203125 -0.769531 4.171875 -0.75 C 4.066406 -0.625 3.941406 -0.515625 3.796875 -0.421875 C 3.660156 -0.328125 3.515625 -0.234375 3.359375 -0.140625 C 3.234375 -0.0351562 3.082031 0.0195312 2.90625 0.03125 C 2.726562 0.0507812 2.5625 0.0507812 2.40625 0.03125 C 2.375 0.03125 2.34375 0.0195312 2.3125 0 C 2.289062 -0.0195312 2.265625 -0.0234375 2.234375 -0.015625 C 2.160156 0.00390625 2.09375 0 2.03125 -0.03125 C 1.96875 -0.0703125 1.898438 -0.0859375 1.828125 -0.078125 C 1.722656 -0.0859375 1.625 -0.117188 1.53125 -0.171875 C 1.4375 -0.234375 1.34375 -0.289062 1.25 -0.34375 C 1.175781 -0.394531 1.109375 -0.453125 1.046875 -0.515625 C 0.984375 -0.578125 0.921875 -0.640625 0.859375 -0.703125 C 0.773438 -0.742188 0.71875 -0.804688 0.6875 -0.890625 C 0.664062 -0.972656 0.625 -1.039062 0.5625 -1.09375 C 0.507812 -1.207031 0.457031 -1.320312 0.40625 -1.4375 C 0.375 -1.582031 0.347656 -1.722656 0.328125 -1.859375 C 0.304688 -2.003906 0.289062 -2.148438 0.28125 -2.296875 C 0.28125 -2.429688 0.28125 -2.566406 0.28125 -2.703125 C 0.28125 -2.835938 0.269531 -2.96875 0.25 -3.09375 C 0.238281 -3.132812 0.25 -3.171875 0.28125 -3.203125 C 0.320312 -3.242188 0.332031 -3.289062 0.3125 -3.34375 C 0.332031 -3.507812 0.347656 -3.679688 0.359375 -3.859375 C 0.378906 -4.035156 0.421875 -4.207031 0.484375 -4.375 C 0.484375 -4.476562 0.5 -4.570312 0.53125 -4.65625 C 0.570312 -4.75 0.597656 -4.84375 0.609375 -4.9375 C 0.628906 -5.082031 0.671875 -5.222656 0.734375 -5.359375 C 0.796875 -5.492188 0.84375 -5.632812 0.875 -5.78125 C 0.90625 -5.832031 0.929688 -5.882812 0.953125 -5.9375 C 0.972656 -5.988281 0.992188 -6.035156 1.015625 -6.078125 C 1.003906 -6.140625 1.019531 -6.1875 1.0625 -6.21875 C 1.113281 -6.25 1.144531 -6.289062 1.15625 -6.34375 C 1.207031 -6.4375 1.253906 -6.523438 1.296875 -6.609375 C 1.347656 -6.703125 1.390625 -6.800781 1.421875 -6.90625 C 1.484375 -7.007812 1.550781 -7.117188 1.625 -7.234375 C 1.695312 -7.347656 1.757812 -7.460938 1.8125 -7.578125 C 1.851562 -7.679688 1.90625 -7.773438 1.96875 -7.859375 C 2.039062 -7.941406 2.101562 -8.03125 2.15625 -8.125 C 2.207031 -8.207031 2.269531 -8.28125 2.34375 -8.34375 C 2.414062 -8.414062 2.484375 -8.488281 2.546875 -8.5625 C 2.554688 -8.582031 2.578125 -8.59375 2.609375 -8.59375 C 2.640625 -8.59375 2.648438 -8.609375 2.640625 -8.640625 C 2.617188 -8.671875 2.632812 -8.695312 2.6875 -8.71875 C 2.738281 -8.738281 2.769531 -8.738281 2.78125 -8.71875 C 2.8125 -8.726562 2.84375 -8.738281 2.875 -8.75 C 2.90625 -8.757812 2.9375 -8.765625 2.96875 -8.765625 Z M 3.078125 -4.4375 C 3.066406 -4.40625 3.046875 -4.382812 3.015625 -4.375 C 2.984375 -4.375 2.953125 -4.367188 2.921875 -4.359375 C 2.742188 -4.265625 2.597656 -4.160156 2.484375 -4.046875 C 2.460938 -4.003906 2.441406 -3.960938 2.421875 -3.921875 C 2.398438 -3.890625 2.367188 -3.859375 2.328125 -3.828125 C 2.304688 -3.785156 2.28125 -3.742188 2.25 -3.703125 C 2.226562 -3.660156 2.191406 -3.640625 2.140625 -3.640625 C 2.066406 -3.503906 1.960938 -3.398438 1.828125 -3.328125 C 1.691406 -3.253906 1.609375 -3.132812 1.578125 -2.96875 C 1.617188 -2.914062 1.617188 -2.863281 1.578125 -2.8125 C 1.546875 -2.757812 1.539062 -2.703125 1.5625 -2.640625 C 1.5625 -2.554688 1.546875 -2.476562 1.515625 -2.40625 C 1.484375 -2.332031 1.484375 -2.253906 1.515625 -2.171875 C 1.503906 -2.046875 1.503906 -1.914062 1.515625 -1.78125 C 1.535156 -1.644531 1.554688 -1.507812 1.578125 -1.375 C 1.597656 -1.269531 1.660156 -1.207031 1.765625 -1.1875 C 1.878906 -1.164062 1.976562 -1.160156 2.0625 -1.171875 C 2.125 -1.191406 2.1875 -1.207031 2.25 -1.21875 C 2.320312 -1.226562 2.382812 -1.25 2.4375 -1.28125 C 2.550781 -1.363281 2.671875 -1.429688 2.796875 -1.484375 C 2.910156 -1.578125 3.019531 -1.675781 3.125 -1.78125 C 3.226562 -1.882812 3.332031 -1.988281 3.4375 -2.09375 C 3.519531 -2.238281 3.609375 -2.382812 3.703125 -2.53125 C 3.804688 -2.675781 3.890625 -2.828125 3.953125 -2.984375 C 4.023438 -3.148438 4.085938 -3.320312 4.140625 -3.5 C 4.191406 -3.675781 4.21875 -3.851562 4.21875 -4.03125 C 4.238281 -4.144531 4.207031 -4.207031 4.125 -4.21875 C 4.039062 -4.226562 3.96875 -4.25 3.90625 -4.28125 C 3.800781 -4.320312 3.695312 -4.347656 3.59375 -4.359375 C 3.488281 -4.367188 3.378906 -4.378906 3.265625 -4.390625 C 3.210938 -4.335938 3.175781 -4.320312 3.15625 -4.34375 C 3.144531 -4.363281 3.132812 -4.390625 3.125 -4.421875 C 3.125 -4.453125 3.109375 -4.457031 3.078125 -4.4375 Z M 3.078125 -4.4375 "/></g></g></g><g clip-path="url(#c433dc76cf)"><path fill="#a6a6a6" d="M 464.058594 646.945312 L 464.058594 726.214844 C 464.058594 759.753906 438.902344 787.308594 405.574219 790.347656 C 402.789062 790.5625 400.003906 789.671875 397.929688 787.773438 C 395.878906 785.898438 394.699219 783.246094 394.699219 780.460938 L 394.699219 656.851562 C 394.699219 643.171875 405.789062 632.082031 419.472656 632.082031 L 424.425781 632.082031 C 427.152344 632.082031 429.378906 629.855469 429.378906 627.128906 C 429.378906 624.398438 427.152344 622.171875 424.425781 622.171875 L 345.15625 622.171875 C 342.425781 622.171875 340.203125 624.398438 340.203125 627.128906 C 340.203125 629.855469 342.425781 632.082031 345.15625 632.082031 L 350.109375 632.082031 C 363.792969 632.082031 374.882812 643.171875 374.882812 656.851562 L 374.882812 780.460938 C 374.882812 783.246094 373.703125 785.898438 371.652344 787.773438 C 369.578125 789.671875 366.792969 790.5625 364.007812 790.347656 C 330.679688 787.308594 305.523438 759.753906 305.523438 726.214844 L 305.523438 646.945312 C 305.523438 633.261719 294.433594 622.171875 280.75 622.171875 L 251.023438 622.171875 C 248.296875 622.171875 246.070312 624.398438 246.070312 627.128906 C 246.070312 629.855469 248.296875 632.082031 251.023438 632.082031 L 260.933594 632.082031 C 274.617188 632.082031 285.703125 643.171875 285.703125 656.851562 L 285.703125 726.214844 C 285.703125 770.996094 320.695312 807.941406 365.378906 810.320312 C 370.703125 810.589844 374.882812 814.945312 374.882812 820.210938 L 374.882812 864.933594 C 374.882812 878.617188 363.792969 889.707031 350.109375 889.707031 L 345.15625 889.707031 C 342.425781 889.707031 340.203125 891.929688 340.203125 894.660156 C 340.203125 897.390625 342.425781 899.613281 345.15625 899.613281 L 424.425781 899.613281 C 427.152344 899.613281 429.378906 897.390625 429.378906 894.660156 C 429.378906 891.929688 427.152344 889.707031 424.425781 889.707031 L 419.472656 889.707031 C 405.789062 889.707031 394.699219 878.617188 394.699219 864.933594 L 394.699219 820.210938 C 394.699219 814.945312 398.878906 810.589844 404.203125 810.320312 C 448.886719 807.941406 483.878906 770.996094 483.878906 726.214844 L 483.878906 656.851562 C 483.878906 643.171875 494.964844 632.082031 508.648438 632.082031 L 518.558594 632.082031 C 521.285156 632.082031 523.511719 629.855469 523.511719 627.128906 C 523.511719 624.398438 521.285156 622.191406 518.578125 622.191406 L 488.851562 622.171875 C 475.148438 622.171875 464.058594 633.261719 464.058594 646.945312 " fill-opacity="1" fill-rule="nonzero"/></g><g clip-path="url(#1d6299c298)"><path fill="#caf4ff" d="M 484.265625 646.945312 L 484.265625 726.214844 C 484.265625 759.753906 459.105469 787.308594 425.78125 790.347656 C 422.992188 790.5625 420.207031 789.671875 418.136719 787.773438 C 416.085938 785.898438 414.902344 783.246094 414.902344 780.460938 L 414.902344 656.851562 C 414.902344 643.171875 425.992188 632.082031 439.675781 632.082031 L 444.628906 632.082031 C 447.359375 632.082031 449.582031 629.855469 449.582031 627.128906 C 449.582031 624.398438 447.359375 622.171875 444.628906 622.171875 L 365.359375 622.171875 C 362.632812 622.171875 360.40625 624.398438 360.40625 627.128906 C 360.40625 629.855469 362.632812 632.082031 365.359375 632.082031 L 370.316406 632.082031 C 383.996094 632.082031 395.085938 643.171875 395.085938 656.851562 L 395.085938 780.460938 C 395.085938 783.246094 393.90625 785.898438 391.855469 787.773438 C 389.785156 789.671875 386.996094 790.5625 384.210938 790.347656 C 350.882812 787.308594 325.726562 759.753906 325.726562 726.214844 L 325.726562 646.945312 C 325.726562 633.261719 314.636719 622.171875 300.953125 622.171875 L 271.230469 622.171875 C 268.5 622.171875 266.273438 624.398438 266.273438 627.128906 C 266.273438 629.855469 268.5 632.082031 271.230469 632.082031 L 281.136719 632.082031 C 294.820312 632.082031 305.910156 643.171875 305.910156 656.851562 L 305.910156 726.214844 C 305.910156 770.996094 340.898438 807.941406 385.585938 810.320312 C 390.90625 810.589844 395.085938 814.945312 395.085938 820.210938 L 395.085938 864.933594 C 395.085938 878.617188 383.996094 889.707031 370.316406 889.707031 L 365.359375 889.707031 C 362.632812 889.707031 360.40625 891.929688 360.40625 894.660156 C 360.40625 897.390625 362.632812 899.613281 365.359375 899.613281 L 444.628906 899.613281 C 447.359375 899.613281 449.582031 897.390625 449.582031 894.660156 C 449.582031 891.929688 447.359375 889.707031 444.628906 889.707031 L 439.675781 889.707031 C 425.992188 889.707031 414.902344 878.617188 414.902344 864.933594 L 414.902344 820.210938 C 414.902344 814.945312 419.082031 810.589844 424.40625 810.320312 C 469.089844 807.941406 504.082031 770.996094 504.082031 726.214844 L 504.082031 656.851562 C 504.082031 643.171875 515.171875 632.082031 528.851562 632.082031 L 538.761719 632.082031 C 541.488281 632.082031 543.714844 629.855469 543.714844 627.128906 C 543.714844 624.398438 541.488281 622.191406 538.78125 622.191406 L 509.054688 622.171875 C 495.351562 622.171875 484.265625 633.261719 484.265625 646.945312 " fill-opacity="1" fill-rule="nonzero"/></g></svg>