<?xml version="1.0"?>
<svg width="800" height="600" xmlns="http://www.w3.org/2000/svg" xmlns:svg="http://www.w3.org/2000/svg" preserveAspectRatio="xMidYMid meet" version="1.0">
 <defs>
  <g id="svg_1"/>
  <clipPath id="c433dc76cf">
   <path clip-rule="nonzero" d="m246.07,622.17l277.5,0l0,277.5l-277.5,0l0,-277.5zm0,0" id="svg_2"/>
  </clipPath>
  <clipPath id="1d6299c298">
   <path clip-rule="nonzero" d="m266.27,622.17l277.5,0l0,277.5l-277.5,0l0,-277.5zm0,0" id="svg_3"/>
  </clipPath>
 </defs>
 <g class="layer">
  <title>Layer 1</title>
  <g id="svg_4">
   <g clip-path="url(#c433dc76cf)" id="svg_10">
    <path d="m464.06,645.95l0,79.26c0,33.54 -25.16,61.1 -58.49,64.14c-2.78,0.21 -5.57,-0.68 -7.64,-2.58c-2.05,-1.87 -3.23,-4.52 -3.23,-7.31l0,-123.61c0,-13.68 11.09,-24.77 24.77,-24.77l4.96,0c2.72,0 4.95,-2.22 4.95,-4.95c0,-2.73 -2.23,-4.96 -4.95,-4.96l-79.27,0c-2.73,0 -4.96,2.23 -4.96,4.96c0,2.73 2.23,4.95 4.96,4.95l4.95,0c13.68,0 24.77,11.09 24.77,24.77l0,123.61c0,2.79 -1.18,5.44 -3.23,7.31c-2.07,1.9 -4.86,2.79 -7.64,2.58c-33.33,-3.04 -58.49,-30.6 -58.49,-64.14l0,-79.26c0,-13.69 -11.09,-24.78 -24.77,-24.78l-29.73,0c-2.72,0 -4.95,2.23 -4.95,4.96c0,2.73 2.23,4.95 4.95,4.95l9.91,0c13.69,0 24.77,11.09 24.77,24.77l0,69.36c0,44.79 35,81.73 79.68,84.11c5.32,0.27 9.5,4.63 9.5,9.89l0,44.72c0,13.69 -11.09,24.78 -24.77,24.78l-4.95,0c-2.73,0 -4.96,2.22 -4.96,4.95c0,2.73 2.23,4.95 4.96,4.95l79.27,0c2.72,0 4.95,-2.22 4.95,-4.95c0,-2.73 -2.23,-4.95 -4.95,-4.95l-4.96,0c-13.68,0 -24.77,-11.09 -24.77,-24.78l0,-44.72c0,-5.26 4.18,-9.62 9.5,-9.89c44.69,-2.38 79.68,-39.32 79.68,-84.11l0,-69.36c0,-13.68 11.08,-24.77 24.77,-24.77l9.91,0c2.73,0 4.95,-2.22 4.95,-4.95c0,-2.73 -2.22,-4.94 -4.93,-4.94l-29.73,-0.02c-13.7,0 -24.79,11.09 -24.79,24.78" fill="#a6a6a6" fill-rule="nonzero" id="svg_11"/>
   </g>
   <g clip-path="url(#1d6299c298)" id="svg_12">
    <path d="m472.27,645.95l0,79.26c0,33.54 -25.16,61.1 -58.49,64.14c-2.79,0.21 -5.57,-0.68 -7.64,-2.58c-2.05,-1.87 -3.24,-4.52 -3.24,-7.31l0,-123.61c0,-13.68 11.09,-24.77 24.78,-24.77l4.95,0c2.73,0 4.95,-2.22 4.95,-4.95c0,-2.73 -2.22,-4.96 -4.95,-4.96l-79.27,0c-2.73,0 -4.95,2.23 -4.95,4.96c0,2.73 2.22,4.95 4.95,4.95l4.96,0c13.68,0 24.77,11.09 24.77,24.77l0,123.61c0,2.79 -1.18,5.44 -3.23,7.31c-2.07,1.9 -4.86,2.79 -7.65,2.58c-33.33,-3.04 -58.48,-30.6 -58.48,-64.14l0,-79.26c0,-13.69 -11.09,-24.78 -24.78,-24.78l-29.72,0c-2.73,0 -4.96,2.23 -4.96,4.96c0,2.73 2.23,4.95 4.96,4.95l9.91,0c13.68,0 24.77,11.09 24.77,24.77l0,69.36c0,44.79 34.99,81.73 79.68,84.11c5.32,0.27 9.5,4.63 9.5,9.89l0,44.72c0,13.69 -11.09,24.78 -24.77,24.78l-4.96,0c-2.73,0 -4.95,2.22 -4.95,4.95c0,2.73 2.22,4.95 4.95,4.95l79.27,0c2.73,0 4.95,-2.22 4.95,-4.95c0,-2.73 -2.22,-4.95 -4.95,-4.95l-4.95,0c-13.69,0 -24.78,-11.09 -24.78,-24.78l0,-44.72c0,-5.26 4.18,-9.62 9.51,-9.89c44.68,-2.38 79.67,-39.32 79.67,-84.11l0,-69.36c0,-13.68 11.09,-24.77 24.77,-24.77l9.91,0c2.73,0 4.95,-2.22 4.95,-4.95c0,-2.73 -2.22,-4.94 -4.93,-4.94l-29.73,-0.02c-13.7,0 -24.78,11.09 -24.78,24.78" fill="#caf4ff" fill-rule="nonzero" id="svg_13"/>
   </g>
  </g>
 </g>
</svg>